<svg width="23" height="19" viewBox="0 0 23 19" fill="none" xmlns="http://www.w3.org/2000/svg">
<path d="M11.3437 0.00439453C5.33255 0.00439453 0.459564 4.18957 0.459564 9.35222C0.459564 14.5149 5.33255 18.7 11.3437 18.7C17.3547 18.7 22.2277 14.5149 22.2277 9.35222C22.2277 4.18957 17.3547 0.00439453 11.3437 0.00439453ZM11.3437 2.03554C16.0486 2.03554 19.8615 5.31234 19.8615 9.35222C19.8615 13.3921 16.0486 16.6678 11.3437 16.6678C6.63864 16.6678 2.82584 13.3921 2.82584 9.35222C2.82586 5.31234 6.63864 2.03554 11.3437 2.03554ZM15.5142 4.91337L9.20589 10.3324L7.15981 8.57514L5.15226 10.2982L7.19834 12.0555L9.21917 13.7911L11.2254 12.0669L17.535 6.64897L15.5142 4.91337Z" fill="#12941F"/>
</svg>
