<svg width="69" height="63" viewBox="0 0 69 63" fill="none" xmlns="http://www.w3.org/2000/svg">
<g filter="url(#filter0_d_18_52)">
<path d="M9.63406 11.1725C12.9122 8.27186 17.3091 6.57526 21.9424 6.42317C26.5757 6.27108 31.1026 7.67476 34.6148 10.3525C38.1238 7.67922 42.6447 6.27712 47.2724 6.42695C51.9002 6.57678 56.2931 8.26747 59.5719 11.1606C62.8507 14.0536 64.7733 17.9356 64.9547 22.0293C65.1362 26.1229 63.5632 30.1262 60.5506 33.2375L38.6077 52.7125C37.5996 53.6047 36.2475 54.1268 34.8225 54.1741C33.3975 54.2214 32.005 53.7904 30.9242 52.9675L30.6133 52.715L8.67326 33.2375C5.66226 30.1289 4.08851 26.1293 4.26664 22.0385C4.44477 17.9477 6.36166 14.0671 9.63406 11.1725ZM13.6298 14.7075C11.319 16.7525 9.98687 19.5062 9.91005 22.397C9.83323 25.2878 11.0176 28.0938 13.2173 30.2325L13.6298 30.6175L34.6119 49.18L49.5975 35.9175L39.6081 27.0825L36.6126 29.7325C35.023 31.1395 32.8667 31.9302 30.6181 31.9307C28.3696 31.9311 26.2128 31.1414 24.6225 29.735C23.0321 28.3287 22.1383 26.4211 22.1378 24.4318C22.1373 22.4425 23.03 20.5345 24.6196 19.1275L30.5596 13.87C28.1957 12.201 25.2368 11.3318 22.2139 11.4184C19.191 11.505 16.302 12.5417 14.065 14.3425L13.6298 14.7075ZM37.6102 21.7775C38.1401 21.3089 38.8587 21.0456 39.6081 21.0456C40.3574 21.0456 41.076 21.3089 41.606 21.7775L53.5933 32.3825L55.594 30.6175C57.9436 28.5404 59.2812 25.7323 59.3209 22.7939C59.3605 19.8556 58.0989 17.0201 55.806 14.8939C53.5131 12.7678 50.3709 11.5197 47.0513 11.4167C43.7317 11.3136 40.4983 12.3638 38.0425 14.3425L37.6102 14.7075L28.6183 22.6625C28.1284 23.0956 27.8354 23.6727 27.7948 24.2842C27.7542 24.8958 27.9687 25.4992 28.3978 25.98L28.6183 26.1975C29.1077 26.6309 29.76 26.8901 30.4513 26.9261C31.1426 26.962 31.8247 26.7722 32.3682 26.3925L32.614 26.1975L37.6102 21.7775Z" fill="#12941F"/>
</g>
<defs>
<filter id="filter0_d_18_52" x="-3.29852" y="0" width="75.8209" height="68" filterUnits="userSpaceOnUse" color-interpolation-filters="sRGB">
<feFlood flood-opacity="0" result="BackgroundImageFix"/>
<feColorMatrix in="SourceAlpha" type="matrix" values="0 0 0 0 0 0 0 0 0 0 0 0 0 0 0 0 0 0 127 0" result="hardAlpha"/>
<feOffset dy="4"/>
<feGaussianBlur stdDeviation="2"/>
<feComposite in2="hardAlpha" operator="out"/>
<feColorMatrix type="matrix" values="0 0 0 0 0 0 0 0 0 0 0 0 0 0 0 0 0 0 0.25 0"/>
<feBlend mode="normal" in2="BackgroundImageFix" result="effect1_dropShadow_18_52"/>
<feBlend mode="normal" in="SourceGraphic" in2="effect1_dropShadow_18_52" result="shape"/>
</filter>
</defs>
</svg>
