<svg width="17" height="17" viewBox="0 0 17 17" fill="none" xmlns="http://www.w3.org/2000/svg">
<path fill-rule="evenodd" clip-rule="evenodd" d="M8.40806 0.0189209C6.12443 0.0189209 5.83856 0.0291095 4.94142 0.0698642C4.0468 0.111468 3.43553 0.254959 2.90078 0.464676C2.33953 0.677657 1.83107 1.01175 1.41087 1.44364C0.983202 1.86797 0.652359 2.38142 0.441423 2.94817C0.233744 3.48817 0.0916478 4.10543 0.0504483 5.00883C0.00924882 5.91477 0 6.20345 0 8.50949C0 10.8155 0.00924882 11.1042 0.0504483 12.0101C0.0916478 12.9135 0.233744 13.5308 0.441423 14.0708C0.652384 14.6375 0.983223 15.151 1.41087 15.5753C1.8311 16.0072 2.33956 16.3413 2.90078 16.5543C3.43553 16.764 4.0468 16.9075 4.94142 16.9491C5.83856 16.9899 6.12443 17.0001 8.40806 17.0001C10.6917 17.0001 10.9776 16.9899 11.8747 16.9491C12.7693 16.9075 13.3806 16.764 13.9153 16.5543C14.4766 16.3413 14.985 16.0072 15.4053 15.5753C15.8329 15.151 16.1638 14.6376 16.3747 14.0708C16.5824 13.5308 16.7245 12.9135 16.7657 12.0101C16.806 11.1042 16.8161 10.8155 16.8161 8.50949C16.8161 6.20345 16.806 5.91477 16.7657 5.00883C16.7245 4.10543 16.5824 3.48817 16.3747 2.94817C16.1638 2.38142 15.8329 1.86797 15.4053 1.44364C14.9851 1.01175 14.4766 0.677657 13.9153 0.464676C13.3806 0.254959 12.7693 0.111468 11.8747 0.0698642C10.9776 0.0291095 10.6917 0.0189209 8.40806 0.0189209ZM8.40806 1.54892C10.653 1.54892 10.9187 1.55741 11.8049 1.59817C12.6255 1.63637 13.0703 1.77392 13.3671 1.89024C13.759 2.04477 14.0398 2.22902 14.3341 2.52534C14.6283 2.82251 14.81 3.10609 14.963 3.50175C15.0773 3.80147 15.2152 4.25062 15.2522 5.07845C15.2926 5.9742 15.301 6.24166 15.301 8.50949C15.301 10.7765 15.2926 11.0448 15.2522 11.9397C15.2144 12.7684 15.0773 13.2175 14.963 13.5172C14.8282 13.886 14.6133 14.2197 14.3341 14.4936C14.0398 14.7908 13.759 14.9742 13.3671 15.1287C13.0703 15.2442 12.6255 15.3834 11.8058 15.4208C10.9196 15.4616 10.6539 15.4701 8.40806 15.4701C6.16311 15.4701 5.89657 15.4616 5.01121 15.4208C4.19058 15.3826 3.74579 15.2442 3.44899 15.1287C3.08373 14.9927 2.75332 14.7756 2.48206 14.4936C2.20279 14.2197 1.98788 13.8861 1.85314 13.5172C1.73795 13.2175 1.6009 12.7684 1.5639 11.9405C1.52354 11.0448 1.51513 10.7773 1.51513 8.50949C1.51513 6.24251 1.52354 5.9742 1.5639 5.0793C1.60174 4.25062 1.73795 3.80147 1.85314 3.50175C2.00616 3.10609 2.18862 2.82251 2.48206 2.52534C2.77634 2.22817 3.05717 2.04477 3.44899 1.89024C3.74579 1.77392 4.19058 1.63552 5.01036 1.59817C5.89742 1.55741 6.16227 1.54892 8.40806 1.54892ZM8.40806 11.3394C7.66482 11.3394 6.95202 11.0412 6.42646 10.5105C5.90091 9.97982 5.60566 9.26002 5.60566 8.50949C5.60566 7.75895 5.90091 7.03915 6.42646 6.50844C6.95202 5.97773 7.66482 5.67958 8.40806 5.67958C9.15131 5.67958 9.86411 5.97773 10.3897 6.50844C10.9152 7.03915 11.2105 7.75895 11.2105 8.50949C11.2105 9.26002 10.9152 9.97982 10.3897 10.5105C9.86411 11.0412 9.15131 11.3394 8.40806 11.3394ZM8.40806 4.14958C7.84108 4.14958 7.27964 4.26235 6.75581 4.48146C6.23198 4.70056 5.75602 5.02171 5.3551 5.42657C4.95418 5.83142 4.63615 6.31206 4.41918 6.84102C4.2022 7.36999 4.09052 7.93694 4.09052 8.50949C4.09052 9.08204 4.2022 9.64898 4.41918 10.178C4.63615 10.7069 4.95418 11.1876 5.3551 11.5924C5.75602 11.9973 6.23198 12.3184 6.75581 12.5375C7.27964 12.7566 7.84108 12.8694 8.40806 12.8694C9.55315 12.8694 10.6513 12.41 11.461 11.5924C12.2707 10.7748 12.7256 9.66581 12.7256 8.50949C12.7256 7.35317 12.2707 6.24421 11.461 5.42657C10.6513 4.60893 9.55315 4.14958 8.40806 4.14958ZM13.9053 3.97722C13.9053 4.11102 13.8792 4.24351 13.8285 4.36713C13.7777 4.49074 13.7034 4.60306 13.6097 4.69767C13.516 4.79228 13.4048 4.86733 13.2824 4.91853C13.16 4.96974 13.0288 4.99609 12.8963 4.99609C12.7638 4.99609 12.6326 4.96974 12.5102 4.91853C12.3878 4.86733 12.2765 4.79228 12.1828 4.69767C12.0891 4.60306 12.0148 4.49074 11.9641 4.36713C11.9134 4.24351 11.8873 4.11102 11.8873 3.97722C11.8873 3.707 11.9936 3.44785 12.1828 3.25677C12.3721 3.0657 12.6287 2.95835 12.8963 2.95835C13.1639 2.95835 13.4205 3.0657 13.6097 3.25677C13.799 3.44785 13.9053 3.707 13.9053 3.97722Z" fill="#898989" fill-opacity="0.88"/>
</svg>
