<svg width="17" height="17" viewBox="0 0 17 17" fill="none" xmlns="http://www.w3.org/2000/svg">
<path fill-rule="evenodd" clip-rule="evenodd" d="M6.43025 5.91708H9.553V7.48783C10.0028 6.58443 11.1564 5.77274 12.8893 5.77274C16.2113 5.77274 17 7.57104 17 10.8705V16.9811H13.6368V11.6219C13.6368 9.74292 13.187 8.6833 12.0418 8.6833C10.4535 8.6833 9.79347 9.82528 9.79347 11.621V16.9811H6.43025V5.91708ZM0.663158 16.8368H4.02638V5.77274H0.663158V16.8368ZM4.50817 2.16509C4.50829 2.44976 4.45238 2.73161 4.34369 2.99427C4.235 3.25693 4.0757 3.49515 3.87504 3.69509C3.46842 4.10317 2.91804 4.33159 2.34477 4.33019C1.77251 4.3298 1.2234 4.10196 0.816185 3.69594C0.616251 3.49532 0.457485 3.25683 0.348986 2.99414C0.240486 2.73145 0.184386 2.44972 0.183899 2.16509C0.183899 1.59028 0.410917 1.04009 0.817026 0.634245C1.22388 0.227682 1.77322 -0.000254047 2.34561 2.12489e-07C2.91904 2.12489e-07 3.46893 0.228396 3.87504 0.634245C4.28031 1.04009 4.50817 1.59028 4.50817 2.16509Z" fill="#898989" fill-opacity="0.88"/>
</svg>
