<svg width="217" height="58" viewBox="0 0 217 58" fill="none" xmlns="http://www.w3.org/2000/svg">
<g filter="url(#filter0_d_10_362)">
<path d="M28.5572 24.7108L38.2951 24.7108M28.1485 24.7108C15.4416 24.7108 5.12552 14.2247 5 1.24007C6.08007 1.08299 7.18349 1 8.30443 1C21.0113 1 31.3245 11.4861 31.4529 24.4707C30.3566 24.6312 29.2503 24.7114 28.1427 24.7108M28.1427 24.7108C15.4387 24.7108 5.1226 35.1969 5 48.1816C6.09447 48.3411 7.19873 48.4213 8.30443 48.4216C21.0113 48.4216 31.3245 37.9355 31.4529 24.9509C30.3566 24.7905 29.2503 24.7102 28.1427 24.7108Z" stroke="#12941F" stroke-width="1.25" stroke-linecap="round" stroke-linejoin="round"/>
</g>
<g filter="url(#filter1_d_10_362)">
<line y1="-0.5" x2="19.6488" y2="-0.5" transform="matrix(0.741347 0.671122 -0.601313 0.799014 31.4535 25.1412)" stroke="#1E68D8"/>
<line y1="-0.5" x2="19.6616" y2="-0.5" transform="matrix(-0.73241 -0.680864 0.611643 -0.791134 31.8314 24.7896)" stroke="#1E68D8"/>
<line y1="-0.5" x2="19.6179" y2="-0.5" transform="matrix(0.752936 -0.658093 0.587816 0.808994 31.4803 24.634)" stroke="#1E68D8"/>
<line y1="-0.5" x2="20.9765" y2="-0.5" transform="matrix(-0.725022 0.688725 -0.697394 -0.716688 31.3702 24.7108)" stroke="#1E68D8"/>
<line y1="-0.5" x2="19.6179" y2="-0.5" transform="matrix(0.752936 -0.658093 0.587816 0.808994 31.4803 24.634)" stroke="#1E68D8"/>
<path d="M39.2249 17.7641L40.1455 13.3924" stroke="#1E68D8"/>
<path d="M23.9385 31.9521L23.2126 36.3644" stroke="#1E68D8"/>
<path d="M23.9385 31.9521L23.2126 36.3644" stroke="#1E68D8"/>
<path d="M41.5354 15.6326L45.6733 15.1245" stroke="#1E68D8"/>
<path d="M21.7249 34.1943L17.614 34.9043" stroke="#1E68D8"/>
<path d="M41.5354 15.6326L45.7875 15.1092" stroke="#1E68D8"/>
<path d="M21.7249 34.1943L17.5006 34.9251" stroke="#1E68D8"/>
</g>
<g filter="url(#filter2_d_10_362)">
<path d="M48.2225 15.0903C48.2225 15.7691 47.7018 16.298 47.0851 16.298C46.4684 16.298 45.9477 15.7691 45.9477 15.0903C45.9477 14.4116 46.4684 13.8827 47.0851 13.8827C47.7018 13.8827 48.2225 14.4116 48.2225 15.0903Z" stroke="#1E68D8" stroke-width="0.5" shape-rendering="crispEdges"/>
</g>
<g filter="url(#filter3_d_10_362)">
<path d="M15.1187 35.4248C15.0887 34.7468 15.5853 34.193 16.2014 34.1628C16.8175 34.1327 17.3611 34.6356 17.3912 35.3135C17.4212 35.9914 16.9245 36.5453 16.3084 36.5754C15.6924 36.6056 15.1488 36.1027 15.1187 35.4248Z" stroke="#1E68D8" stroke-width="0.5" shape-rendering="crispEdges"/>
</g>
<g filter="url(#filter4_d_10_362)">
<path d="M41.5629 11.9807C41.5629 12.6594 41.0422 13.1883 40.4255 13.1883C39.8088 13.1883 39.2881 12.6594 39.2881 11.9807C39.2881 11.302 39.8088 10.7731 40.4255 10.7731C41.0422 10.7731 41.5629 11.302 41.5629 11.9807Z" stroke="#1E68D8" stroke-width="0.5" shape-rendering="crispEdges"/>
</g>
<g filter="url(#filter5_d_10_362)">
<path d="M21.9634 37.7572C21.9333 37.0792 22.43 36.5254 23.0461 36.4952C23.6622 36.4651 24.2057 36.968 24.2358 37.6459C24.2659 38.3238 23.7692 38.8777 23.1531 38.9078C22.537 38.938 21.9934 38.4351 21.9634 37.7572Z" stroke="#1E68D8" stroke-width="0.5" shape-rendering="crispEdges"/>
</g>
<g filter="url(#filter6_d_10_362)">
<path d="M34.3498 24.7108H24.6118M34.7585 24.7108C47.4653 24.7108 57.7814 35.1969 57.907 48.1816C56.8269 48.3386 55.7235 48.4216 54.6025 48.4216C41.8957 48.4216 31.5825 37.9355 31.454 24.9509C32.5504 24.7905 33.6566 24.7102 34.7643 24.7108M34.7643 24.7108C47.4682 24.7108 57.7843 14.2247 57.907 1.24007C56.8125 1.08052 55.7082 1.0003 54.6025 1C41.8957 1 31.5825 11.4861 31.454 24.4707C32.5504 24.6312 33.6566 24.7114 34.7643 24.7108Z" stroke="#12941F" stroke-width="1.25" stroke-linecap="round" stroke-linejoin="round"/>
<path d="M38.6245 31.3052L42.7623 30.7971" stroke="#1E68D8"/>
<path d="M24.7382 18.5273L20.5391 19.0747" stroke="#1E68D8"/>
<path d="M45.2626 30.6384C45.2626 31.3171 44.7419 31.8461 44.1252 31.8461C43.5085 31.8461 42.9878 31.3171 42.9878 30.6384C42.9878 29.9597 43.5085 29.4308 44.1252 29.4308C44.7419 29.4308 45.2626 29.9597 45.2626 30.6384Z" stroke="#1E68D8" stroke-width="0.5"/>
<path d="M18.0325 18.9806C18.041 18.302 18.5683 17.7803 19.1849 17.7888C19.8016 17.7973 20.3156 18.3334 20.3071 19.0121C20.2987 19.6907 19.7714 20.2124 19.1547 20.2039C18.5381 20.1954 18.024 19.6593 18.0325 18.9806Z" stroke="#1E68D8" stroke-width="0.5"/>
</g>
<g filter="url(#filter7_d_10_362)">
<path d="M40.9095 33.4307L41.8374 37.8966" stroke="#1E68D8"/>
<path d="M43.2278 39.1899C43.2278 39.8687 42.7071 40.3976 42.0904 40.3976C41.4737 40.3976 40.9529 39.8687 40.9529 39.1899C40.9529 38.5112 41.4737 37.9823 42.0904 37.9823C42.7071 37.9823 43.2278 38.5112 43.2278 39.1899Z" stroke="#1E68D8" stroke-width="0.5"/>
</g>
<g filter="url(#filter8_d_10_362)">
<path d="M22.4799 16.3702L21.608 11.8919" stroke="#1E68D8"/>
<path d="M20.2523 10.4291C20.2608 9.75046 20.7881 9.22879 21.4048 9.23731C22.0214 9.24583 22.5355 9.78188 22.527 10.4605C22.5185 11.1392 21.9912 11.6609 21.3746 11.6524C20.7579 11.6438 20.2439 11.1078 20.2523 10.4291Z" stroke="#1E68D8" stroke-width="0.5"/>
</g>
<g filter="url(#filter9_d_10_362)">
<path d="M43.3404 35.6187L47.4131 34.6009" stroke="#1E68D8"/>
<path d="M48.7499 32.9292C49.3666 32.9292 49.8874 33.4581 49.8874 34.1369C49.8874 34.8156 49.3666 35.3445 48.7499 35.3445C48.1332 35.3445 47.6125 34.8156 47.6125 34.1369C47.6125 33.4581 48.1332 32.9292 48.7499 32.9292Z" stroke="#1E68D8" stroke-width="0.5"/>
</g>
<g filter="url(#filter10_d_10_362)">
<path d="M20.0767 14.149L15.9915 15.1104" stroke="#1E68D8"/>
<path d="M14.7151 16.7058C14.0984 16.6973 13.5844 16.1612 13.5928 15.4826C13.6013 14.8039 14.1286 14.2822 14.7453 14.2908C15.3619 14.2993 15.876 14.8353 15.8675 15.514C15.859 16.1927 15.3317 16.7143 14.7151 16.7058Z" stroke="#1E68D8" stroke-width="0.5"/>
</g>
<path d="M43.1091 14.3135L44.5197 9.69423" stroke="#1E68D8"/>
<g filter="url(#filter11_d_10_362)">
<path d="M20.2114 35.589L19.0069 40.2722" stroke="#1E68D8"/>
</g>
<g filter="url(#filter12_d_10_362)">
<path d="M20.2114 35.589L19.0069 40.2722" stroke="#1E68D8"/>
<path d="M19.6767 42.2623C19.3883 42.8623 18.7072 43.0752 18.1617 42.7582C17.6162 42.4411 17.3925 41.7025 17.6809 41.1024C17.9693 40.5023 18.6504 40.2895 19.1959 40.6065C19.7414 40.9235 19.9652 41.6622 19.6767 42.2623Z" stroke="#1E68D8" stroke-width="0.5"/>
</g>
<g filter="url(#filter13_d_10_362)">
<path d="M47.9578 37.9195C48.4311 38.3551 48.4976 39.1288 48.1002 39.6482C47.7028 40.1676 46.9966 40.2302 46.5232 39.7946C46.0499 39.359 45.9835 38.5853 46.3809 38.0659C46.7782 37.5465 47.4845 37.4839 47.9578 37.9195Z" stroke="#1E68D8" stroke-width="0.5" shape-rendering="crispEdges"/>
</g>
<g filter="url(#filter14_d_10_362)">
<path d="M15.6204 11.4116C15.1523 10.9693 15.0959 10.1947 15.4995 9.6811C15.9031 9.16753 16.6101 9.11437 17.0782 9.55673C17.5463 9.99909 17.6027 10.7737 17.1991 11.2873C16.7955 11.8008 16.0885 11.854 15.6204 11.4116Z" stroke="#1E68D8" stroke-width="0.5" shape-rendering="crispEdges"/>
</g>
<g filter="url(#filter15_d_10_362)">
<path d="M47.9578 9.93304C48.4311 10.3686 48.4976 11.1424 48.1002 11.6618C47.7028 12.1812 46.9966 12.2438 46.5232 11.8082C46.0499 11.3726 45.9835 10.5988 46.3809 10.0794C46.7782 9.56003 47.4845 9.49745 47.9578 9.93304Z" stroke="#1E68D8" stroke-width="0.5" shape-rendering="crispEdges"/>
</g>
<g filter="url(#filter16_d_10_362)">
<path d="M16.1131 39.2139C16.5864 39.6495 16.6529 40.4233 16.2555 40.9427C15.8581 41.4621 15.1518 41.5246 14.6785 41.0891C14.2052 40.6535 14.1388 39.8797 14.5361 39.3603C14.9335 38.8409 15.6398 38.7783 16.1131 39.2139Z" stroke="#1E68D8" stroke-width="0.5" shape-rendering="crispEdges"/>
</g>
<g filter="url(#filter17_d_10_362)">
<path d="M77.0946 35.0793C76.2279 35.0793 75.4279 34.8727 74.6946 34.4593C73.9746 34.046 73.4012 33.4793 72.9746 32.7593C72.5479 32.0393 72.3346 31.226 72.3346 30.3193C72.3346 29.4793 72.5479 28.706 72.9746 27.9993C73.4012 27.2793 73.9812 26.706 74.7146 26.2793C75.4612 25.8527 76.2812 25.6393 77.1746 25.6393C77.9212 25.6393 78.5612 25.7593 79.0946 25.9993C79.6279 26.2393 80.1479 26.6127 80.6546 27.1193V28.1993C80.2146 27.546 79.7212 27.0527 79.1746 26.7193C78.6412 26.3727 77.9746 26.1993 77.1746 26.1993C76.4412 26.1993 75.7479 26.3927 75.0946 26.7793C74.4546 27.1527 73.9412 27.6593 73.5546 28.2993C73.1679 28.9393 72.9746 29.626 72.9746 30.3593C72.9746 31.1593 73.1612 31.8793 73.5346 32.5193C73.9079 33.146 74.4079 33.6393 75.0346 33.9993C75.6746 34.346 76.3612 34.5193 77.0946 34.5193C78.5879 34.5193 79.7746 33.846 80.6546 32.4993V33.5793C80.1746 34.086 79.6412 34.466 79.0546 34.7193C78.4812 34.9593 77.8279 35.0793 77.0946 35.0793ZM87.9002 35.1393C86.9935 35.1393 86.1735 34.9193 85.4402 34.4793C84.7069 34.026 84.1335 33.4327 83.7202 32.6993C83.3069 31.9527 83.1002 31.146 83.1002 30.2793C83.1002 29.426 83.3069 28.6327 83.7202 27.8993C84.1469 27.166 84.7202 26.586 85.4402 26.1593C86.1735 25.7193 86.9869 25.4993 87.8802 25.4993C88.7602 25.4993 89.5602 25.7193 90.2802 26.1593C91.0135 26.586 91.5869 27.166 92.0002 27.8993C92.4135 28.6327 92.6202 29.426 92.6202 30.2793C92.6202 31.1727 92.4202 31.9927 92.0202 32.7393C91.6202 33.4727 91.0602 34.0593 90.3402 34.4993C89.6335 34.926 88.8202 35.1393 87.9002 35.1393ZM87.9002 34.5793C88.6602 34.5793 89.3535 34.386 89.9802 33.9993C90.6069 33.6127 91.0935 33.0993 91.4402 32.4593C91.8002 31.806 91.9802 31.0927 91.9802 30.3193C91.9802 29.5593 91.8002 28.8527 91.4402 28.1993C91.0802 27.546 90.5869 27.026 89.9602 26.6393C89.3335 26.2527 88.6402 26.0593 87.8802 26.0593C87.1202 26.0593 86.4202 26.2593 85.7802 26.6593C85.1535 27.046 84.6535 27.566 84.2802 28.2193C83.9202 28.8727 83.7402 29.5793 83.7402 30.3393C83.7402 31.0993 83.9202 31.806 84.2802 32.4593C84.6535 33.0993 85.1535 33.6127 85.7802 33.9993C86.4202 34.386 87.1269 34.5793 87.9002 34.5793ZM95.9363 19.8193H101.276V20.3993H96.5963V28.5193H100.496V29.0993H96.5963V34.8193H95.9363V19.8193ZM108.018 35.0393C106.751 35.0393 105.771 34.6927 105.078 33.9993C104.398 33.306 104.058 32.326 104.058 31.0593V25.8193H104.698V31.0593C104.698 32.1527 104.984 32.9993 105.558 33.5993C106.144 34.186 106.964 34.4793 108.018 34.4793C108.658 34.4793 109.244 34.3393 109.778 34.0593C110.311 33.766 110.731 33.3593 111.038 32.8393C111.344 32.3193 111.498 31.726 111.498 31.0593V25.8193H112.138V34.8193H111.498V33.1393C111.191 33.6993 110.731 34.1593 110.118 34.5193C109.504 34.866 108.804 35.0393 108.018 35.0393ZM117.843 35.0393C117.203 35.0393 116.637 34.9327 116.143 34.7193C115.65 34.4927 115.297 34.206 115.083 33.8593V32.7993C115.337 33.3727 115.683 33.7993 116.123 34.0793C116.563 34.346 117.123 34.4793 117.803 34.4793C118.457 34.4793 118.983 34.2793 119.383 33.8793C119.783 33.466 119.983 32.9393 119.983 32.2993C119.983 31.7527 119.87 31.3327 119.643 31.0393C119.417 30.7327 119.05 30.426 118.543 30.1193L117.783 29.6793C117.237 29.346 116.823 29.086 116.543 28.8993C116.277 28.6993 116.063 28.4793 115.903 28.2393C115.743 27.986 115.663 27.6927 115.663 27.3593C115.663 26.826 115.85 26.3993 116.223 26.0793C116.597 25.7593 117.083 25.5993 117.683 25.5993C118.417 25.5993 119.03 25.766 119.523 26.0993V26.9793C119.11 26.4327 118.517 26.1593 117.743 26.1593C117.317 26.1593 116.97 26.266 116.703 26.4793C116.437 26.6927 116.303 26.966 116.303 27.2993C116.303 27.5927 116.383 27.8527 116.543 28.0793C116.703 28.2927 116.923 28.4927 117.203 28.6793C117.497 28.866 117.977 29.146 118.643 29.5193C119.323 29.906 119.823 30.306 120.143 30.7193C120.463 31.1193 120.623 31.646 120.623 32.2993C120.623 33.126 120.35 33.7927 119.803 34.2993C119.27 34.7927 118.617 35.0393 117.843 35.0393ZM124.396 23.7593C124.21 23.7593 124.043 23.6927 123.896 23.5593C123.763 23.426 123.696 23.2593 123.696 23.0593C123.696 22.8727 123.763 22.7127 123.896 22.5793C124.043 22.446 124.21 22.3793 124.396 22.3793C124.583 22.3793 124.743 22.446 124.876 22.5793C125.023 22.7127 125.096 22.8727 125.096 23.0593C125.096 23.2593 125.023 23.426 124.876 23.5593C124.743 23.6927 124.583 23.7593 124.396 23.7593ZM124.076 25.8193H124.716V34.8193H124.076V25.8193ZM132.978 35.1393C132.072 35.1393 131.252 34.9193 130.518 34.4793C129.785 34.026 129.212 33.4327 128.798 32.6993C128.385 31.9527 128.178 31.146 128.178 30.2793C128.178 29.426 128.385 28.6327 128.798 27.8993C129.225 27.166 129.798 26.586 130.518 26.1593C131.252 25.7193 132.065 25.4993 132.958 25.4993C133.838 25.4993 134.638 25.7193 135.358 26.1593C136.092 26.586 136.665 27.166 137.078 27.8993C137.492 28.6327 137.698 29.426 137.698 30.2793C137.698 31.1727 137.498 31.9927 137.098 32.7393C136.698 33.4727 136.138 34.0593 135.418 34.4993C134.712 34.926 133.898 35.1393 132.978 35.1393ZM132.978 34.5793C133.738 34.5793 134.432 34.386 135.058 33.9993C135.685 33.6127 136.172 33.0993 136.518 32.4593C136.878 31.806 137.058 31.0927 137.058 30.3193C137.058 29.5593 136.878 28.8527 136.518 28.1993C136.158 27.546 135.665 27.026 135.038 26.6393C134.412 26.2527 133.718 26.0593 132.958 26.0593C132.198 26.0593 131.498 26.2593 130.858 26.6593C130.232 27.046 129.732 27.566 129.358 28.2193C128.998 28.8727 128.818 29.5793 128.818 30.3393C128.818 31.0993 128.998 31.806 129.358 32.4593C129.732 33.0993 130.232 33.6127 130.858 33.9993C131.498 34.386 132.205 34.5793 132.978 34.5793ZM140.499 25.8193H141.139V27.8193C141.432 27.1527 141.932 26.6193 142.639 26.2193C143.346 25.806 144.126 25.5993 144.979 25.5993C146.086 25.5993 146.959 25.9527 147.599 26.6593C148.252 27.3527 148.579 28.326 148.579 29.5793V34.8193H147.939V29.5793C147.939 28.4993 147.672 27.6593 147.139 27.0593C146.619 26.4593 145.886 26.1593 144.939 26.1593C144.246 26.1593 143.606 26.3193 143.019 26.6393C142.446 26.946 141.986 27.3727 141.639 27.9193C141.306 28.466 141.139 29.086 141.139 29.7793V34.8193H140.499V25.8193ZM169.696 34.4993C170.389 34.4993 171.049 34.3193 171.676 33.9593C172.302 33.5993 172.822 33.106 173.236 32.4793V33.4993C172.742 34.046 172.202 34.446 171.616 34.6993C171.029 34.9393 170.362 35.0593 169.616 35.0593C168.789 35.0593 168.009 34.8393 167.276 34.3993C166.556 33.9593 165.976 33.3727 165.536 32.6393C165.109 31.906 164.896 31.126 164.896 30.2993C164.896 29.406 165.109 28.606 165.536 27.8993C165.962 27.1793 166.542 26.6193 167.276 26.2193C168.022 25.8193 168.849 25.6193 169.756 25.6193C171.142 25.6193 172.322 26.166 173.296 27.2593L167.016 33.4593C167.456 33.8193 167.882 34.086 168.296 34.2593C168.709 34.4193 169.176 34.4993 169.696 34.4993ZM165.536 30.2393C165.536 31.346 165.902 32.2927 166.636 33.0793L172.496 27.2593C172.056 26.8727 171.629 26.5993 171.216 26.4393C170.802 26.266 170.309 26.1793 169.736 26.1793C168.922 26.1793 168.196 26.3593 167.556 26.7193C166.929 27.066 166.436 27.546 166.076 28.1593C165.716 28.7727 165.536 29.466 165.536 30.2393ZM180.536 35.0793C179.669 35.0793 178.869 34.8727 178.136 34.4593C177.416 34.046 176.843 33.4793 176.416 32.7593C175.989 32.0393 175.776 31.226 175.776 30.3193C175.776 29.4793 175.989 28.706 176.416 27.9993C176.843 27.2793 177.423 26.706 178.156 26.2793C178.903 25.8527 179.723 25.6393 180.616 25.6393C181.363 25.6393 182.003 25.7593 182.536 25.9993C183.069 26.2393 183.589 26.6127 184.096 27.1193V28.1993C183.656 27.546 183.163 27.0527 182.616 26.7193C182.083 26.3727 181.416 26.1993 180.616 26.1993C179.883 26.1993 179.189 26.3927 178.536 26.7793C177.896 27.1527 177.383 27.6593 176.996 28.2993C176.609 28.9393 176.416 29.626 176.416 30.3593C176.416 31.1593 176.603 31.8793 176.976 32.5193C177.349 33.146 177.849 33.6393 178.476 33.9993C179.116 34.346 179.803 34.5193 180.536 34.5193C182.029 34.5193 183.216 33.846 184.096 32.4993V33.5793C183.616 34.086 183.083 34.466 182.496 34.7193C181.923 34.9593 181.269 35.0793 180.536 35.0793ZM186.866 19.8193H187.506V27.6793C187.786 27.0793 188.26 26.586 188.926 26.1993C189.606 25.7993 190.293 25.5993 190.986 25.5993C192.253 25.5993 193.226 25.946 193.906 26.6393C194.6 27.3327 194.946 28.3127 194.946 29.5793V34.8193H194.306V29.5793C194.306 28.486 194.013 27.646 193.426 27.0593C192.853 26.4593 192.04 26.1593 190.986 26.1593C190.346 26.1593 189.76 26.3127 189.226 26.6193C188.693 26.9127 188.273 27.326 187.966 27.8593C187.66 28.3793 187.506 28.9527 187.506 29.5793V34.8193H186.866V19.8193Z" fill="black"/>
<path d="M64.6941 19.8193H70.0741V20.3993H65.3541V28.5593H69.2941V29.1393H65.3541V34.2393H70.0741V34.8193H64.6941V19.8193Z" fill="#12941F"/>
<path d="M160.119 20.3993H156.659V19.8193H164.199V20.3993H160.779V34.8193H160.119V20.3993Z" fill="#1E68D8"/>
</g>
<defs>
<filter id="filter0_d_10_362" x="0.375" y="0.375" width="42.5451" height="56.6716" filterUnits="userSpaceOnUse" color-interpolation-filters="sRGB">
<feFlood flood-opacity="0" result="BackgroundImageFix"/>
<feColorMatrix in="SourceAlpha" type="matrix" values="0 0 0 0 0 0 0 0 0 0 0 0 0 0 0 0 0 0 127 0" result="hardAlpha"/>
<feOffset dy="4"/>
<feGaussianBlur stdDeviation="2"/>
<feComposite in2="hardAlpha" operator="out"/>
<feColorMatrix type="matrix" values="0 0 0 0 0 0 0 0 0 0 0 0 0 0 0 0 0 0 0.25 0"/>
<feBlend mode="normal" in2="BackgroundImageFix" result="effect1_dropShadow_10_362"/>
<feBlend mode="normal" in="SourceGraphic" in2="effect1_dropShadow_10_362" result="shape"/>
</filter>
<filter id="filter1_d_10_362" x="12.1618" y="10.9147" width="38.4596" height="36.9598" filterUnits="userSpaceOnUse" color-interpolation-filters="sRGB">
<feFlood flood-opacity="0" result="BackgroundImageFix"/>
<feColorMatrix in="SourceAlpha" type="matrix" values="0 0 0 0 0 0 0 0 0 0 0 0 0 0 0 0 0 0 127 0" result="hardAlpha"/>
<feOffset dy="4"/>
<feGaussianBlur stdDeviation="2"/>
<feComposite in2="hardAlpha" operator="out"/>
<feColorMatrix type="matrix" values="0 0 0 0 0 0 0 0 0 0 0 0 0 0 0 0 0 0 0.25 0"/>
<feBlend mode="normal" in2="BackgroundImageFix" result="effect1_dropShadow_10_362"/>
<feBlend mode="normal" in="SourceGraphic" in2="effect1_dropShadow_10_362" result="shape"/>
</filter>
<filter id="filter2_d_10_362" x="41.6977" y="13.6327" width="10.7748" height="10.9153" filterUnits="userSpaceOnUse" color-interpolation-filters="sRGB">
<feFlood flood-opacity="0" result="BackgroundImageFix"/>
<feColorMatrix in="SourceAlpha" type="matrix" values="0 0 0 0 0 0 0 0 0 0 0 0 0 0 0 0 0 0 127 0" result="hardAlpha"/>
<feOffset dy="4"/>
<feGaussianBlur stdDeviation="2"/>
<feComposite in2="hardAlpha" operator="out"/>
<feColorMatrix type="matrix" values="0 0 0 0 0 0 0 0 0 0 0 0 0 0 0 0 0 0 0.25 0"/>
<feBlend mode="normal" in2="BackgroundImageFix" result="effect1_dropShadow_10_362"/>
<feBlend mode="normal" in="SourceGraphic" in2="effect1_dropShadow_10_362" result="shape"/>
</filter>
<filter id="filter3_d_10_362" x="10.8675" y="33.9115" width="10.7749" height="10.9153" filterUnits="userSpaceOnUse" color-interpolation-filters="sRGB">
<feFlood flood-opacity="0" result="BackgroundImageFix"/>
<feColorMatrix in="SourceAlpha" type="matrix" values="0 0 0 0 0 0 0 0 0 0 0 0 0 0 0 0 0 0 127 0" result="hardAlpha"/>
<feOffset dy="4"/>
<feGaussianBlur stdDeviation="2"/>
<feComposite in2="hardAlpha" operator="out"/>
<feColorMatrix type="matrix" values="0 0 0 0 0 0 0 0 0 0 0 0 0 0 0 0 0 0 0.25 0"/>
<feBlend mode="normal" in2="BackgroundImageFix" result="effect1_dropShadow_10_362"/>
<feBlend mode="normal" in="SourceGraphic" in2="effect1_dropShadow_10_362" result="shape"/>
</filter>
<filter id="filter4_d_10_362" x="35.0381" y="10.5231" width="10.7748" height="10.9153" filterUnits="userSpaceOnUse" color-interpolation-filters="sRGB">
<feFlood flood-opacity="0" result="BackgroundImageFix"/>
<feColorMatrix in="SourceAlpha" type="matrix" values="0 0 0 0 0 0 0 0 0 0 0 0 0 0 0 0 0 0 127 0" result="hardAlpha"/>
<feOffset dy="4"/>
<feGaussianBlur stdDeviation="2"/>
<feComposite in2="hardAlpha" operator="out"/>
<feColorMatrix type="matrix" values="0 0 0 0 0 0 0 0 0 0 0 0 0 0 0 0 0 0 0.25 0"/>
<feBlend mode="normal" in2="BackgroundImageFix" result="effect1_dropShadow_10_362"/>
<feBlend mode="normal" in="SourceGraphic" in2="effect1_dropShadow_10_362" result="shape"/>
</filter>
<filter id="filter5_d_10_362" x="17.7121" y="36.2439" width="10.7749" height="10.9153" filterUnits="userSpaceOnUse" color-interpolation-filters="sRGB">
<feFlood flood-opacity="0" result="BackgroundImageFix"/>
<feColorMatrix in="SourceAlpha" type="matrix" values="0 0 0 0 0 0 0 0 0 0 0 0 0 0 0 0 0 0 127 0" result="hardAlpha"/>
<feOffset dy="4"/>
<feGaussianBlur stdDeviation="2"/>
<feComposite in2="hardAlpha" operator="out"/>
<feColorMatrix type="matrix" values="0 0 0 0 0 0 0 0 0 0 0 0 0 0 0 0 0 0 0.25 0"/>
<feBlend mode="normal" in2="BackgroundImageFix" result="effect1_dropShadow_10_362"/>
<feBlend mode="normal" in="SourceGraphic" in2="effect1_dropShadow_10_362" result="shape"/>
</filter>
<filter id="filter6_d_10_362" x="13.7824" y="0.375" width="48.7495" height="56.6716" filterUnits="userSpaceOnUse" color-interpolation-filters="sRGB">
<feFlood flood-opacity="0" result="BackgroundImageFix"/>
<feColorMatrix in="SourceAlpha" type="matrix" values="0 0 0 0 0 0 0 0 0 0 0 0 0 0 0 0 0 0 127 0" result="hardAlpha"/>
<feOffset dy="4"/>
<feGaussianBlur stdDeviation="2"/>
<feComposite in2="hardAlpha" operator="out"/>
<feColorMatrix type="matrix" values="0 0 0 0 0 0 0 0 0 0 0 0 0 0 0 0 0 0 0.25 0"/>
<feBlend mode="normal" in2="BackgroundImageFix" result="effect1_dropShadow_10_362"/>
<feBlend mode="normal" in="SourceGraphic" in2="effect1_dropShadow_10_362" result="shape"/>
</filter>
<filter id="filter7_d_10_362" x="36.4247" y="33.3088" width="11.0531" height="15.3387" filterUnits="userSpaceOnUse" color-interpolation-filters="sRGB">
<feFlood flood-opacity="0" result="BackgroundImageFix"/>
<feColorMatrix in="SourceAlpha" type="matrix" values="0 0 0 0 0 0 0 0 0 0 0 0 0 0 0 0 0 0 127 0" result="hardAlpha"/>
<feOffset dy="4"/>
<feGaussianBlur stdDeviation="2"/>
<feComposite in2="hardAlpha" operator="out"/>
<feColorMatrix type="matrix" values="0 0 0 0 0 0 0 0 0 0 0 0 0 0 0 0 0 0 0.25 0"/>
<feBlend mode="normal" in2="BackgroundImageFix" result="effect1_dropShadow_10_362"/>
<feBlend mode="normal" in="SourceGraphic" in2="effect1_dropShadow_10_362" result="shape"/>
</filter>
<filter id="filter8_d_10_362" x="16.0023" y="8.98718" width="10.964" height="15.4982" filterUnits="userSpaceOnUse" color-interpolation-filters="sRGB">
<feFlood flood-opacity="0" result="BackgroundImageFix"/>
<feColorMatrix in="SourceAlpha" type="matrix" values="0 0 0 0 0 0 0 0 0 0 0 0 0 0 0 0 0 0 127 0" result="hardAlpha"/>
<feOffset dy="4"/>
<feGaussianBlur stdDeviation="2"/>
<feComposite in2="hardAlpha" operator="out"/>
<feColorMatrix type="matrix" values="0 0 0 0 0 0 0 0 0 0 0 0 0 0 0 0 0 0 0.25 0"/>
<feBlend mode="normal" in2="BackgroundImageFix" result="effect1_dropShadow_10_362"/>
<feBlend mode="normal" in="SourceGraphic" in2="effect1_dropShadow_10_362" result="shape"/>
</filter>
<filter id="filter9_d_10_362" x="39.2392" y="32.6792" width="14.8982" height="11.4293" filterUnits="userSpaceOnUse" color-interpolation-filters="sRGB">
<feFlood flood-opacity="0" result="BackgroundImageFix"/>
<feColorMatrix in="SourceAlpha" type="matrix" values="0 0 0 0 0 0 0 0 0 0 0 0 0 0 0 0 0 0 127 0" result="hardAlpha"/>
<feOffset dy="4"/>
<feGaussianBlur stdDeviation="2"/>
<feComposite in2="hardAlpha" operator="out"/>
<feColorMatrix type="matrix" values="0 0 0 0 0 0 0 0 0 0 0 0 0 0 0 0 0 0 0.25 0"/>
<feBlend mode="normal" in2="BackgroundImageFix" result="effect1_dropShadow_10_362"/>
<feBlend mode="normal" in="SourceGraphic" in2="effect1_dropShadow_10_362" result="shape"/>
</filter>
<filter id="filter10_d_10_362" x="9.34274" y="13.6578" width="14.8289" height="11.2981" filterUnits="userSpaceOnUse" color-interpolation-filters="sRGB">
<feFlood flood-opacity="0" result="BackgroundImageFix"/>
<feColorMatrix in="SourceAlpha" type="matrix" values="0 0 0 0 0 0 0 0 0 0 0 0 0 0 0 0 0 0 127 0" result="hardAlpha"/>
<feOffset dy="4"/>
<feGaussianBlur stdDeviation="2"/>
<feComposite in2="hardAlpha" operator="out"/>
<feColorMatrix type="matrix" values="0 0 0 0 0 0 0 0 0 0 0 0 0 0 0 0 0 0 0.25 0"/>
<feBlend mode="normal" in2="BackgroundImageFix" result="effect1_dropShadow_10_362"/>
<feBlend mode="normal" in="SourceGraphic" in2="effect1_dropShadow_10_362" result="shape"/>
</filter>
<filter id="filter11_d_10_362" x="14.5378" y="35.443" width="10.1427" height="12.9752" filterUnits="userSpaceOnUse" color-interpolation-filters="sRGB">
<feFlood flood-opacity="0" result="BackgroundImageFix"/>
<feColorMatrix in="SourceAlpha" type="matrix" values="0 0 0 0 0 0 0 0 0 0 0 0 0 0 0 0 0 0 127 0" result="hardAlpha"/>
<feOffset dy="4"/>
<feGaussianBlur stdDeviation="2"/>
<feComposite in2="hardAlpha" operator="out"/>
<feColorMatrix type="matrix" values="0 0 0 0 0 0 0 0 0 0 0 0 0 0 0 0 0 0 0.25 0"/>
<feBlend mode="normal" in2="BackgroundImageFix" result="effect1_dropShadow_10_362"/>
<feBlend mode="normal" in="SourceGraphic" in2="effect1_dropShadow_10_362" result="shape"/>
</filter>
<filter id="filter12_d_10_362" x="13.3128" y="35.443" width="11.3676" height="15.7197" filterUnits="userSpaceOnUse" color-interpolation-filters="sRGB">
<feFlood flood-opacity="0" result="BackgroundImageFix"/>
<feColorMatrix in="SourceAlpha" type="matrix" values="0 0 0 0 0 0 0 0 0 0 0 0 0 0 0 0 0 0 127 0" result="hardAlpha"/>
<feOffset dy="4"/>
<feGaussianBlur stdDeviation="2"/>
<feComposite in2="hardAlpha" operator="out"/>
<feColorMatrix type="matrix" values="0 0 0 0 0 0 0 0 0 0 0 0 0 0 0 0 0 0 0.25 0"/>
<feBlend mode="normal" in2="BackgroundImageFix" result="effect1_dropShadow_10_362"/>
<feBlend mode="normal" in="SourceGraphic" in2="effect1_dropShadow_10_362" result="shape"/>
</filter>
<filter id="filter13_d_10_362" x="41.8823" y="37.3693" width="10.7164" height="10.9756" filterUnits="userSpaceOnUse" color-interpolation-filters="sRGB">
<feFlood flood-opacity="0" result="BackgroundImageFix"/>
<feColorMatrix in="SourceAlpha" type="matrix" values="0 0 0 0 0 0 0 0 0 0 0 0 0 0 0 0 0 0 127 0" result="hardAlpha"/>
<feOffset dy="4"/>
<feGaussianBlur stdDeviation="2"/>
<feComposite in2="hardAlpha" operator="out"/>
<feColorMatrix type="matrix" values="0 0 0 0 0 0 0 0 0 0 0 0 0 0 0 0 0 0 0.25 0"/>
<feBlend mode="normal" in2="BackgroundImageFix" result="effect1_dropShadow_10_362"/>
<feBlend mode="normal" in="SourceGraphic" in2="effect1_dropShadow_10_362" result="shape"/>
</filter>
<filter id="filter14_d_10_362" x="10.9912" y="8.99634" width="10.7162" height="10.9757" filterUnits="userSpaceOnUse" color-interpolation-filters="sRGB">
<feFlood flood-opacity="0" result="BackgroundImageFix"/>
<feColorMatrix in="SourceAlpha" type="matrix" values="0 0 0 0 0 0 0 0 0 0 0 0 0 0 0 0 0 0 127 0" result="hardAlpha"/>
<feOffset dy="4"/>
<feGaussianBlur stdDeviation="2"/>
<feComposite in2="hardAlpha" operator="out"/>
<feColorMatrix type="matrix" values="0 0 0 0 0 0 0 0 0 0 0 0 0 0 0 0 0 0 0.25 0"/>
<feBlend mode="normal" in2="BackgroundImageFix" result="effect1_dropShadow_10_362"/>
<feBlend mode="normal" in="SourceGraphic" in2="effect1_dropShadow_10_362" result="shape"/>
</filter>
<filter id="filter15_d_10_362" x="41.8823" y="9.38281" width="10.7164" height="10.9756" filterUnits="userSpaceOnUse" color-interpolation-filters="sRGB">
<feFlood flood-opacity="0" result="BackgroundImageFix"/>
<feColorMatrix in="SourceAlpha" type="matrix" values="0 0 0 0 0 0 0 0 0 0 0 0 0 0 0 0 0 0 127 0" result="hardAlpha"/>
<feOffset dy="4"/>
<feGaussianBlur stdDeviation="2"/>
<feComposite in2="hardAlpha" operator="out"/>
<feColorMatrix type="matrix" values="0 0 0 0 0 0 0 0 0 0 0 0 0 0 0 0 0 0 0.25 0"/>
<feBlend mode="normal" in2="BackgroundImageFix" result="effect1_dropShadow_10_362"/>
<feBlend mode="normal" in="SourceGraphic" in2="effect1_dropShadow_10_362" result="shape"/>
</filter>
<filter id="filter16_d_10_362" x="10.0376" y="38.6637" width="10.7164" height="10.9756" filterUnits="userSpaceOnUse" color-interpolation-filters="sRGB">
<feFlood flood-opacity="0" result="BackgroundImageFix"/>
<feColorMatrix in="SourceAlpha" type="matrix" values="0 0 0 0 0 0 0 0 0 0 0 0 0 0 0 0 0 0 127 0" result="hardAlpha"/>
<feOffset dy="4"/>
<feGaussianBlur stdDeviation="2"/>
<feComposite in2="hardAlpha" operator="out"/>
<feColorMatrix type="matrix" values="0 0 0 0 0 0 0 0 0 0 0 0 0 0 0 0 0 0 0.25 0"/>
<feBlend mode="normal" in2="BackgroundImageFix" result="effect1_dropShadow_10_362"/>
<feBlend mode="normal" in="SourceGraphic" in2="effect1_dropShadow_10_362" result="shape"/>
</filter>
<filter id="filter17_d_10_362" x="60.6941" y="19.8193" width="138.252" height="23.3199" filterUnits="userSpaceOnUse" color-interpolation-filters="sRGB">
<feFlood flood-opacity="0" result="BackgroundImageFix"/>
<feColorMatrix in="SourceAlpha" type="matrix" values="0 0 0 0 0 0 0 0 0 0 0 0 0 0 0 0 0 0 127 0" result="hardAlpha"/>
<feOffset dy="4"/>
<feGaussianBlur stdDeviation="2"/>
<feComposite in2="hardAlpha" operator="out"/>
<feColorMatrix type="matrix" values="0 0 0 0 0 0 0 0 0 0 0 0 0 0 0 0 0 0 0.25 0"/>
<feBlend mode="normal" in2="BackgroundImageFix" result="effect1_dropShadow_10_362"/>
<feBlend mode="normal" in="SourceGraphic" in2="effect1_dropShadow_10_362" result="shape"/>
</filter>
</defs>
</svg>
