<svg width="295" height="67" viewBox="0 0 295 67" fill="none" xmlns="http://www.w3.org/2000/svg">
<g filter="url(#filter0_d_36_119)">
<path d="M37.4022 29.9346L50.7138 29.9346M36.8436 29.9346C19.4735 29.9346 5.3716 17.3746 5.20001 1.82183C6.67645 1.63368 8.1848 1.53428 9.7171 1.53428C27.0871 1.53428 41.1851 14.0943 41.3607 29.6471C39.862 29.8392 38.3497 29.9353 36.8356 29.9346M36.8356 29.9346C19.4695 29.9346 5.36761 42.4947 5.20001 58.0474C6.69613 58.2385 8.20564 58.3346 9.7171 58.335C27.0871 58.335 41.1851 45.7749 41.3607 30.2222C39.862 30.03 38.3497 29.9339 36.8356 29.9346Z" stroke="#EBEBEB" stroke-width="1.25" stroke-linecap="round" stroke-linejoin="round"/>
</g>
<g filter="url(#filter1_d_36_119)">
<line y1="-0.5" x2="25.4161" y2="-0.5" transform="matrix(0.783453 0.621451 -0.65155 0.758606 41.3613 30.4492)" stroke="#EBEBEB"/>
<line y1="-0.5" x2="25.389" y2="-0.5" transform="matrix(-0.775334 -0.631552 0.661614 -0.749844 41.878 30.0288)" stroke="#EBEBEB"/>
<line y1="-0.5" x2="25.4329" y2="-0.5" transform="matrix(0.793919 -0.608023 0.638324 0.769768 41.398 29.8418)" stroke="#EBEBEB"/>
<line y1="-0.5" x2="27.049" y2="-0.5" transform="matrix(-0.76859 0.639741 -0.743122 -0.669155 41.2476 29.9336)" stroke="#EBEBEB"/>
<line y1="-0.5" x2="25.4329" y2="-0.5" transform="matrix(0.793919 -0.608023 0.638324 0.769768 41.398 29.8418)" stroke="#EBEBEB"/>
<path d="M51.9848 21.614L53.2432 16.3776" stroke="#EBEBEB"/>
<path d="M31.0885 38.6082L30.0962 43.8932" stroke="#EBEBEB"/>
<path d="M31.0885 38.6082L30.0962 43.8932" stroke="#EBEBEB"/>
<path d="M55.1432 19.0601L60.7996 18.4514" stroke="#EBEBEB"/>
<path d="M28.0627 41.2935L22.4432 42.1438" stroke="#EBEBEB"/>
<path d="M55.1432 19.0601L60.9557 18.4331" stroke="#EBEBEB"/>
<path d="M28.0627 41.2935L22.2881 42.1688" stroke="#EBEBEB"/>
</g>
<g filter="url(#filter2_d_36_119)">
<path d="M64.3761 18.411C64.3761 19.2181 63.6588 19.9069 62.7295 19.9069C61.8002 19.9069 61.0829 19.2181 61.0829 18.411C61.0829 17.6039 61.8002 16.915 62.7295 16.915C63.6588 16.915 64.3761 17.6039 64.3761 18.411Z" stroke="#EBEBEB" stroke-width="0.5" shape-rendering="crispEdges"/>
</g>
<g filter="url(#filter3_d_36_119)">
<path d="M18.9406 42.7706C18.8997 41.9643 19.5815 41.2455 20.5097 41.2057C21.4378 41.1659 22.1892 41.8231 22.2301 42.6295C22.2709 43.4358 21.5891 44.1546 20.661 44.1944C19.7328 44.2342 18.9814 43.5769 18.9406 42.7706Z" stroke="#EBEBEB" stroke-width="0.5" shape-rendering="crispEdges"/>
</g>
<g filter="url(#filter4_d_36_119)">
<path d="M55.2726 14.6859C55.2726 15.493 54.5552 16.1818 53.626 16.1818C52.6967 16.1818 51.9794 15.493 51.9794 14.6859C51.9794 13.8788 52.6967 13.1899 53.626 13.1899C54.5552 13.1899 55.2726 13.8788 55.2726 14.6859Z" stroke="#EBEBEB" stroke-width="0.5" shape-rendering="crispEdges"/>
</g>
<g filter="url(#filter5_d_36_119)">
<path d="M28.297 45.5645C28.2562 44.7582 28.938 44.0395 29.8661 43.9996C30.7943 43.9598 31.5457 44.6171 31.5865 45.4234C31.6274 46.2298 30.9456 46.9485 30.0174 46.9883C29.0893 47.0282 28.3378 46.3709 28.297 45.5645Z" stroke="#EBEBEB" stroke-width="0.5" shape-rendering="crispEdges"/>
</g>
<g filter="url(#filter6_d_36_119)">
<path d="M45.3206 29.934L32.009 29.934M45.8792 29.934C63.2493 29.934 77.3512 42.4941 77.5228 58.0468C76.0464 58.235 74.538 58.3344 73.0057 58.3344C55.6357 58.3344 41.5377 45.7743 41.3622 30.2216C42.8608 30.0294 44.3731 29.9333 45.8872 29.934M45.8872 29.934C63.2533 29.934 77.3552 17.374 77.5228 1.82124C76.0267 1.63014 74.5172 1.53405 73.0057 1.53369C55.6357 1.53369 41.5377 14.0937 41.3622 29.6465C42.8608 29.8386 44.3731 29.9347 45.8872 29.934Z" stroke="#EBEBEB" stroke-width="1.25" stroke-linecap="round" stroke-linejoin="round"/>
<path d="M51.164 37.8325L56.8204 37.2239" stroke="#EBEBEB"/>
<path d="M32.1818 22.5274L26.4417 23.183" stroke="#EBEBEB"/>
<path d="M60.33 37.034C60.33 37.8411 59.6127 38.5299 58.6834 38.5299C57.7541 38.5299 57.0368 37.8411 57.0368 37.034C57.0368 36.2269 57.7541 35.5381 58.6834 35.5381C59.6127 35.5381 60.33 36.2269 60.33 37.034Z" stroke="#EBEBEB" stroke-width="0.5"/>
<path d="M22.9234 23.0697C22.935 22.2627 23.6621 21.5826 24.5912 21.5939C25.5204 21.6051 26.2278 22.3026 26.2163 23.1096C26.2048 23.9166 25.4777 24.5967 24.5485 24.5855C23.6193 24.5742 22.9119 23.8768 22.9234 23.0697Z" stroke="#EBEBEB" stroke-width="0.5"/>
</g>
<g filter="url(#filter7_d_36_119)">
<path d="M54.2876 40.3784L55.556 45.7277" stroke="#EBEBEB"/>
<path d="M57.5484 47.2767C57.5484 48.0838 56.8311 48.7726 55.9018 48.7726C54.9725 48.7726 54.2552 48.0838 54.2552 47.2767C54.2552 46.4696 54.9725 45.7808 55.9018 45.7808C56.8311 45.7808 57.5484 46.4696 57.5484 47.2767Z" stroke="#EBEBEB" stroke-width="0.5"/>
</g>
<g filter="url(#filter8_d_36_119)">
<path d="M29.0947 19.9448L27.9028 14.5807" stroke="#EBEBEB"/>
<path d="M25.9579 12.8266C25.9694 12.0195 26.6965 11.3395 27.6257 11.3507C28.5549 11.362 29.2623 12.0594 29.2508 12.8664C29.2392 13.6735 28.5121 14.3536 27.583 14.3423C26.6538 14.3311 25.9464 13.6336 25.9579 12.8266Z" stroke="#EBEBEB" stroke-width="0.5"/>
</g>
<g filter="url(#filter9_d_36_119)">
<path d="M57.6105 43.0005L63.1779 41.7815" stroke="#EBEBEB"/>
<path d="M65.0053 39.7284C65.9346 39.7284 66.6519 40.4172 66.6519 41.2243C66.6519 42.0314 65.9346 42.7202 65.0053 42.7202C64.076 42.7202 63.3587 42.0314 63.3587 41.2243C63.3587 40.4172 64.076 39.7284 65.0053 39.7284Z" stroke="#EBEBEB" stroke-width="0.5"/>
</g>
<g filter="url(#filter10_d_36_119)">
<path d="M25.8095 17.2832L20.2252 18.4347" stroke="#EBEBEB"/>
<path d="M18.4795 20.3959C17.5503 20.3846 16.8429 19.6872 16.8544 18.8801C16.866 18.0731 17.5931 17.393 18.5222 17.4043C19.4514 17.4155 20.1588 18.113 20.1473 18.92C20.1358 19.727 19.4087 20.4071 18.4795 20.3959Z" stroke="#EBEBEB" stroke-width="0.5"/>
</g>
<path d="M57.2944 17.4805L59.2227 11.9476" stroke="#EBEBEB"/>
<g filter="url(#filter11_d_36_119)">
<path d="M25.9937 42.9648L24.3472 48.5743" stroke="#EBEBEB"/>
</g>
<g filter="url(#filter12_d_36_119)">
<path d="M25.9934 42.9648L24.347 48.5743" stroke="#EBEBEB"/>
<path d="M25.3352 50.9946C24.9347 51.7247 23.9672 52.0113 23.1637 51.6022C22.3603 51.1931 22.061 50.2615 22.4616 49.5313C22.8621 48.8011 23.8297 48.5145 24.6331 48.9236C25.4365 49.3328 25.7358 50.2644 25.3352 50.9946Z" stroke="#EBEBEB" stroke-width="0.5"/>
</g>
<g filter="url(#filter13_d_36_119)">
<path d="M63.9658 45.7055C64.6489 46.2563 64.7372 47.2265 64.174 47.8715C63.6109 48.5165 62.6013 48.6013 61.9183 48.0505C61.2352 47.4997 61.1468 46.5295 61.71 45.8845C62.2732 45.2395 63.2827 45.1546 63.9658 45.7055Z" stroke="#EBEBEB" stroke-width="0.5" shape-rendering="crispEdges"/>
</g>
<g filter="url(#filter14_d_36_119)">
<path d="M19.6737 14.0533C18.9991 13.4947 18.924 12.5236 19.4968 11.8849C20.0696 11.2463 21.0803 11.1742 21.7549 11.7329C22.4296 12.2915 22.5047 13.2626 21.9319 13.9012C21.3591 14.5399 20.3484 14.6119 19.6737 14.0533Z" stroke="#EBEBEB" stroke-width="0.5" shape-rendering="crispEdges"/>
</g>
<g filter="url(#filter15_d_36_119)">
<path d="M63.9658 12.184C64.6489 12.7348 64.7372 13.705 64.174 14.35C63.6109 14.995 62.6013 15.0798 61.9183 14.529C61.2352 13.9782 61.1468 13.008 61.71 12.363C62.2732 11.718 63.2827 11.6332 63.9658 12.184Z" stroke="#EBEBEB" stroke-width="0.5" shape-rendering="crispEdges"/>
</g>
<g filter="url(#filter16_d_36_119)">
<path d="M20.4346 47.2563C21.1177 47.8071 21.2061 48.7772 20.6429 49.4222C20.0797 50.0673 19.0702 50.1521 18.3871 49.6013C17.704 49.0504 17.6157 48.0803 18.1788 47.4353C18.742 46.7903 19.7516 46.7054 20.4346 47.2563Z" stroke="#EBEBEB" stroke-width="0.5" shape-rendering="crispEdges"/>
</g>
<g filter="url(#filter17_d_36_119)">
<path d="M85.6361 24.2842H92.0921V24.9802H86.4281V34.7722H91.1561V35.4682H86.4281V41.5882H92.0921V42.2842H85.6361V24.2842ZM100.517 42.5962C99.4767 42.5962 98.5167 42.3482 97.6367 41.8522C96.7727 41.3562 96.0847 40.6762 95.5727 39.8122C95.0607 38.9482 94.8047 37.9722 94.8047 36.8842C94.8047 35.8762 95.0607 34.9482 95.5727 34.1002C96.0847 33.2362 96.7807 32.5482 97.6607 32.0362C98.5567 31.5242 99.5407 31.2682 100.613 31.2682C101.509 31.2682 102.277 31.4122 102.917 31.7002C103.557 31.9882 104.181 32.4362 104.789 33.0442V34.3402C104.261 33.5562 103.669 32.9642 103.013 32.5642C102.373 32.1482 101.573 31.9402 100.613 31.9402C99.7327 31.9402 98.9007 32.1722 98.1167 32.6362C97.3487 33.0842 96.7327 33.6922 96.2687 34.4602C95.8047 35.2282 95.5727 36.0522 95.5727 36.9322C95.5727 37.8922 95.7967 38.7562 96.2447 39.5242C96.6927 40.2762 97.2927 40.8682 98.0447 41.3002C98.8127 41.7162 99.6367 41.9242 100.517 41.9242C102.309 41.9242 103.733 41.1162 104.789 39.5002V40.7962C104.213 41.4042 103.573 41.8602 102.869 42.1642C102.181 42.4522 101.397 42.5962 100.517 42.5962ZM113.483 42.6682C112.395 42.6682 111.411 42.4042 110.531 41.8762C109.651 41.3322 108.963 40.6202 108.467 39.7402C107.971 38.8442 107.723 37.8762 107.723 36.8362C107.723 35.8122 107.971 34.8602 108.467 33.9802C108.979 33.1002 109.667 32.4042 110.531 31.8922C111.411 31.3642 112.387 31.1002 113.459 31.1002C114.515 31.1002 115.475 31.3642 116.339 31.8922C117.219 32.4042 117.907 33.1002 118.403 33.9802C118.899 34.8602 119.147 35.8122 119.147 36.8362C119.147 37.9082 118.907 38.8922 118.427 39.7882C117.947 40.6682 117.275 41.3722 116.411 41.9002C115.563 42.4122 114.587 42.6682 113.483 42.6682ZM113.483 41.9962C114.395 41.9962 115.227 41.7642 115.979 41.3002C116.731 40.8362 117.315 40.2202 117.731 39.4522C118.163 38.6682 118.379 37.8122 118.379 36.8842C118.379 35.9722 118.163 35.1242 117.731 34.3402C117.299 33.5562 116.707 32.9322 115.955 32.4682C115.203 32.0042 114.371 31.7722 113.459 31.7722C112.547 31.7722 111.707 32.0122 110.939 32.4922C110.187 32.9562 109.587 33.5802 109.139 34.3642C108.707 35.1482 108.491 35.9962 108.491 36.9082C108.491 37.8202 108.707 38.6682 109.139 39.4522C109.587 40.2202 110.187 40.8362 110.939 41.3002C111.707 41.7642 112.555 41.9962 113.483 41.9962ZM123.127 24.2842H129.535V24.9802H123.919V34.7242H128.599V35.4202H123.919V42.2842H123.127V24.2842ZM137.624 42.5482C136.104 42.5482 134.928 42.1322 134.096 41.3002C133.28 40.4682 132.872 39.2922 132.872 37.7722V31.4842H133.64V37.7722C133.64 39.0842 133.984 40.1002 134.672 40.8202C135.376 41.5242 136.36 41.8762 137.624 41.8762C138.392 41.8762 139.096 41.7082 139.736 41.3722C140.376 41.0202 140.88 40.5322 141.248 39.9082C141.616 39.2842 141.8 38.5722 141.8 37.7722V31.4842H142.568V42.2842H141.8V40.2682C141.432 40.9402 140.88 41.4922 140.144 41.9242C139.408 42.3402 138.568 42.5482 137.624 42.5482ZM149.415 42.5482C148.647 42.5482 147.967 42.4202 147.375 42.1642C146.783 41.8922 146.359 41.5482 146.103 41.1322V39.8602C146.407 40.5482 146.823 41.0602 147.351 41.3962C147.879 41.7162 148.551 41.8762 149.367 41.8762C150.151 41.8762 150.783 41.6362 151.263 41.1562C151.743 40.6602 151.983 40.0282 151.983 39.2602C151.983 38.6042 151.847 38.1002 151.575 37.7482C151.303 37.3802 150.863 37.0122 150.255 36.6442L149.343 36.1162C148.687 35.7162 148.191 35.4042 147.855 35.1802C147.535 34.9402 147.279 34.6762 147.087 34.3882C146.895 34.0842 146.799 33.7322 146.799 33.3322C146.799 32.6922 147.023 32.1802 147.471 31.7962C147.919 31.4122 148.503 31.2202 149.223 31.2202C150.103 31.2202 150.839 31.4202 151.431 31.8202V32.8762C150.935 32.2202 150.223 31.8922 149.295 31.8922C148.783 31.8922 148.367 32.0202 148.047 32.2762C147.727 32.5322 147.567 32.8602 147.567 33.2602C147.567 33.6122 147.663 33.9242 147.855 34.1962C148.047 34.4522 148.311 34.6922 148.647 34.9162C148.999 35.1402 149.575 35.4762 150.375 35.9242C151.191 36.3882 151.791 36.8682 152.175 37.3642C152.559 37.8442 152.751 38.4762 152.751 39.2602C152.751 40.2522 152.423 41.0522 151.767 41.6602C151.127 42.2522 150.343 42.5482 149.415 42.5482ZM157.279 29.0122C157.055 29.0122 156.855 28.9322 156.679 28.7722C156.519 28.6122 156.439 28.4122 156.439 28.1722C156.439 27.9482 156.519 27.7562 156.679 27.5962C156.855 27.4362 157.055 27.3562 157.279 27.3562C157.503 27.3562 157.695 27.4362 157.855 27.5962C158.031 27.7562 158.119 27.9482 158.119 28.1722C158.119 28.4122 158.031 28.6122 157.855 28.7722C157.695 28.9322 157.503 29.0122 157.279 29.0122ZM156.895 31.4842H157.663V42.2842H156.895V31.4842ZM167.577 42.6682C166.489 42.6682 165.505 42.4042 164.625 41.8762C163.745 41.3322 163.057 40.6202 162.561 39.7402C162.065 38.8442 161.817 37.8762 161.817 36.8362C161.817 35.8122 162.065 34.8602 162.561 33.9802C163.073 33.1002 163.761 32.4042 164.625 31.8922C165.505 31.3642 166.481 31.1002 167.553 31.1002C168.609 31.1002 169.569 31.3642 170.433 31.8922C171.313 32.4042 172.001 33.1002 172.497 33.9802C172.993 34.8602 173.241 35.8122 173.241 36.8362C173.241 37.9082 173.001 38.8922 172.521 39.7882C172.041 40.6682 171.369 41.3722 170.505 41.9002C169.657 42.4122 168.681 42.6682 167.577 42.6682ZM167.577 41.9962C168.489 41.9962 169.321 41.7642 170.073 41.3002C170.825 40.8362 171.409 40.2202 171.825 39.4522C172.257 38.6682 172.473 37.8122 172.473 36.8842C172.473 35.9722 172.257 35.1242 171.825 34.3402C171.393 33.5562 170.801 32.9322 170.049 32.4682C169.297 32.0042 168.465 31.7722 167.553 31.7722C166.641 31.7722 165.801 32.0122 165.033 32.4922C164.281 32.9562 163.681 33.5802 163.233 34.3642C162.801 35.1482 162.585 35.9962 162.585 36.9082C162.585 37.8202 162.801 38.6682 163.233 39.4522C163.681 40.2202 164.281 40.8362 165.033 41.3002C165.801 41.7642 166.649 41.9962 167.577 41.9962ZM176.602 31.4842H177.37V33.8842C177.722 33.0842 178.322 32.4442 179.17 31.9642C180.018 31.4682 180.954 31.2202 181.978 31.2202C183.306 31.2202 184.354 31.6442 185.122 32.4922C185.906 33.3242 186.298 34.4922 186.298 35.9962V42.2842H185.53V35.9962C185.53 34.7002 185.21 33.6922 184.57 32.9722C183.946 32.2522 183.066 31.8922 181.93 31.8922C181.098 31.8922 180.33 32.0842 179.626 32.4682C178.938 32.8362 178.386 33.3482 177.97 34.0042C177.57 34.6602 177.37 35.4042 177.37 36.2362V42.2842H176.602V31.4842ZM211.638 41.9002C212.47 41.9002 213.262 41.6842 214.014 41.2522C214.766 40.8202 215.39 40.2282 215.886 39.4762V40.7002C215.294 41.3562 214.646 41.8362 213.942 42.1402C213.238 42.4282 212.438 42.5722 211.542 42.5722C210.55 42.5722 209.614 42.3082 208.734 41.7802C207.87 41.2522 207.174 40.5482 206.646 39.6682C206.134 38.7882 205.878 37.8522 205.878 36.8602C205.878 35.7882 206.134 34.8282 206.646 33.9802C207.158 33.1162 207.854 32.4442 208.734 31.9642C209.63 31.4842 210.622 31.2442 211.71 31.2442C213.374 31.2442 214.79 31.9002 215.958 33.2122L208.422 40.6522C208.95 41.0842 209.462 41.4042 209.958 41.6122C210.454 41.8042 211.014 41.9002 211.638 41.9002ZM206.646 36.7882C206.646 38.1162 207.086 39.2522 207.966 40.1962L214.998 33.2122C214.47 32.7482 213.958 32.4202 213.462 32.2282C212.966 32.0202 212.374 31.9162 211.686 31.9162C210.71 31.9162 209.838 32.1322 209.07 32.5642C208.318 32.9802 207.726 33.5562 207.294 34.2922C206.862 35.0282 206.646 35.8602 206.646 36.7882ZM224.646 42.5962C223.606 42.5962 222.646 42.3482 221.766 41.8522C220.902 41.3562 220.214 40.6762 219.702 39.8122C219.19 38.9482 218.934 37.9722 218.934 36.8842C218.934 35.8762 219.19 34.9482 219.702 34.1002C220.214 33.2362 220.91 32.5482 221.79 32.0362C222.686 31.5242 223.67 31.2682 224.742 31.2682C225.638 31.2682 226.406 31.4122 227.046 31.7002C227.686 31.9882 228.31 32.4362 228.918 33.0442V34.3402C228.39 33.5562 227.798 32.9642 227.142 32.5642C226.502 32.1482 225.702 31.9402 224.742 31.9402C223.862 31.9402 223.03 32.1722 222.246 32.6362C221.478 33.0842 220.862 33.6922 220.398 34.4602C219.934 35.2282 219.702 36.0522 219.702 36.9322C219.702 37.8922 219.926 38.7562 220.374 39.5242C220.822 40.2762 221.422 40.8682 222.174 41.3002C222.942 41.7162 223.766 41.9242 224.646 41.9242C226.438 41.9242 227.862 41.1162 228.918 39.5002V40.7962C228.342 41.4042 227.702 41.8602 226.998 42.1642C226.31 42.4522 225.526 42.5962 224.646 42.5962ZM232.243 24.2842H233.011V33.7162C233.347 32.9962 233.915 32.4042 234.715 31.9402C235.531 31.4602 236.355 31.2202 237.187 31.2202C238.707 31.2202 239.875 31.6362 240.691 32.4682C241.523 33.3002 241.939 34.4762 241.939 35.9962V42.2842H241.171V35.9962C241.171 34.6842 240.819 33.6762 240.115 32.9722C239.427 32.2522 238.451 31.8922 237.187 31.8922C236.419 31.8922 235.715 32.0762 235.075 32.4442C234.435 32.7962 233.931 33.2922 233.563 33.9322C233.195 34.5562 233.011 35.2442 233.011 35.9962V42.2842H232.243V24.2842Z" fill="white"/>
<path d="M200.146 24.9802H195.994V24.2842H205.042V24.9802H200.938V42.2842H200.146V24.9802Z" fill="#EBEBEB"/>
</g>
<defs>
<filter id="filter0_d_36_119" x="0.575012" y="0.90918" width="54.7638" height="66.0508" filterUnits="userSpaceOnUse" color-interpolation-filters="sRGB">
<feFlood flood-opacity="0" result="BackgroundImageFix"/>
<feColorMatrix in="SourceAlpha" type="matrix" values="0 0 0 0 0 0 0 0 0 0 0 0 0 0 0 0 0 0 127 0" result="hardAlpha"/>
<feOffset dy="4"/>
<feGaussianBlur stdDeviation="2"/>
<feComposite in2="hardAlpha" operator="out"/>
<feColorMatrix type="matrix" values="0 0 0 0 0 0 0 0 0 0 0 0 0 0 0 0 0 0 0.25 0"/>
<feBlend mode="normal" in2="BackgroundImageFix" result="effect1_dropShadow_36_119"/>
<feBlend mode="normal" in="SourceGraphic" in2="effect1_dropShadow_36_119" result="shape"/>
</filter>
<filter id="filter1_d_36_119" x="16.458" y="13.6084" width="49.4672" height="42.2988" filterUnits="userSpaceOnUse" color-interpolation-filters="sRGB">
<feFlood flood-opacity="0" result="BackgroundImageFix"/>
<feColorMatrix in="SourceAlpha" type="matrix" values="0 0 0 0 0 0 0 0 0 0 0 0 0 0 0 0 0 0 127 0" result="hardAlpha"/>
<feOffset dy="4"/>
<feGaussianBlur stdDeviation="2"/>
<feComposite in2="hardAlpha" operator="out"/>
<feColorMatrix type="matrix" values="0 0 0 0 0 0 0 0 0 0 0 0 0 0 0 0 0 0 0.25 0"/>
<feBlend mode="normal" in2="BackgroundImageFix" result="effect1_dropShadow_36_119"/>
<feBlend mode="normal" in="SourceGraphic" in2="effect1_dropShadow_36_119" result="shape"/>
</filter>
<filter id="filter2_d_36_119" x="56.8329" y="16.665" width="11.7932" height="11.4917" filterUnits="userSpaceOnUse" color-interpolation-filters="sRGB">
<feFlood flood-opacity="0" result="BackgroundImageFix"/>
<feColorMatrix in="SourceAlpha" type="matrix" values="0 0 0 0 0 0 0 0 0 0 0 0 0 0 0 0 0 0 127 0" result="hardAlpha"/>
<feOffset dy="4"/>
<feGaussianBlur stdDeviation="2"/>
<feComposite in2="hardAlpha" operator="out"/>
<feColorMatrix type="matrix" values="0 0 0 0 0 0 0 0 0 0 0 0 0 0 0 0 0 0 0.25 0"/>
<feBlend mode="normal" in2="BackgroundImageFix" result="effect1_dropShadow_36_119"/>
<feBlend mode="normal" in="SourceGraphic" in2="effect1_dropShadow_36_119" result="shape"/>
</filter>
<filter id="filter3_d_36_119" x="14.6887" y="40.9541" width="11.7932" height="11.4917" filterUnits="userSpaceOnUse" color-interpolation-filters="sRGB">
<feFlood flood-opacity="0" result="BackgroundImageFix"/>
<feColorMatrix in="SourceAlpha" type="matrix" values="0 0 0 0 0 0 0 0 0 0 0 0 0 0 0 0 0 0 127 0" result="hardAlpha"/>
<feOffset dy="4"/>
<feGaussianBlur stdDeviation="2"/>
<feComposite in2="hardAlpha" operator="out"/>
<feColorMatrix type="matrix" values="0 0 0 0 0 0 0 0 0 0 0 0 0 0 0 0 0 0 0.25 0"/>
<feBlend mode="normal" in2="BackgroundImageFix" result="effect1_dropShadow_36_119"/>
<feBlend mode="normal" in="SourceGraphic" in2="effect1_dropShadow_36_119" result="shape"/>
</filter>
<filter id="filter4_d_36_119" x="47.7294" y="12.9399" width="11.7932" height="11.4917" filterUnits="userSpaceOnUse" color-interpolation-filters="sRGB">
<feFlood flood-opacity="0" result="BackgroundImageFix"/>
<feColorMatrix in="SourceAlpha" type="matrix" values="0 0 0 0 0 0 0 0 0 0 0 0 0 0 0 0 0 0 127 0" result="hardAlpha"/>
<feOffset dy="4"/>
<feGaussianBlur stdDeviation="2"/>
<feComposite in2="hardAlpha" operator="out"/>
<feColorMatrix type="matrix" values="0 0 0 0 0 0 0 0 0 0 0 0 0 0 0 0 0 0 0.25 0"/>
<feBlend mode="normal" in2="BackgroundImageFix" result="effect1_dropShadow_36_119"/>
<feBlend mode="normal" in="SourceGraphic" in2="effect1_dropShadow_36_119" result="shape"/>
</filter>
<filter id="filter5_d_36_119" x="24.0452" y="43.748" width="11.7932" height="11.4917" filterUnits="userSpaceOnUse" color-interpolation-filters="sRGB">
<feFlood flood-opacity="0" result="BackgroundImageFix"/>
<feColorMatrix in="SourceAlpha" type="matrix" values="0 0 0 0 0 0 0 0 0 0 0 0 0 0 0 0 0 0 127 0" result="hardAlpha"/>
<feOffset dy="4"/>
<feGaussianBlur stdDeviation="2"/>
<feComposite in2="hardAlpha" operator="out"/>
<feColorMatrix type="matrix" values="0 0 0 0 0 0 0 0 0 0 0 0 0 0 0 0 0 0 0.25 0"/>
<feBlend mode="normal" in2="BackgroundImageFix" result="effect1_dropShadow_36_119"/>
<feBlend mode="normal" in="SourceGraphic" in2="effect1_dropShadow_36_119" result="shape"/>
</filter>
<filter id="filter6_d_36_119" x="18.6733" y="0.908691" width="63.4745" height="66.0508" filterUnits="userSpaceOnUse" color-interpolation-filters="sRGB">
<feFlood flood-opacity="0" result="BackgroundImageFix"/>
<feColorMatrix in="SourceAlpha" type="matrix" values="0 0 0 0 0 0 0 0 0 0 0 0 0 0 0 0 0 0 127 0" result="hardAlpha"/>
<feOffset dy="4"/>
<feGaussianBlur stdDeviation="2"/>
<feComposite in2="hardAlpha" operator="out"/>
<feColorMatrix type="matrix" values="0 0 0 0 0 0 0 0 0 0 0 0 0 0 0 0 0 0 0.25 0"/>
<feBlend mode="normal" in2="BackgroundImageFix" result="effect1_dropShadow_36_119"/>
<feBlend mode="normal" in="SourceGraphic" in2="effect1_dropShadow_36_119" result="shape"/>
</filter>
<filter id="filter7_d_36_119" x="49.799" y="40.2715" width="11.9994" height="16.751" filterUnits="userSpaceOnUse" color-interpolation-filters="sRGB">
<feFlood flood-opacity="0" result="BackgroundImageFix"/>
<feColorMatrix in="SourceAlpha" type="matrix" values="0 0 0 0 0 0 0 0 0 0 0 0 0 0 0 0 0 0 127 0" result="hardAlpha"/>
<feOffset dy="4"/>
<feGaussianBlur stdDeviation="2"/>
<feComposite in2="hardAlpha" operator="out"/>
<feColorMatrix type="matrix" values="0 0 0 0 0 0 0 0 0 0 0 0 0 0 0 0 0 0 0.25 0"/>
<feBlend mode="normal" in2="BackgroundImageFix" result="effect1_dropShadow_36_119"/>
<feBlend mode="normal" in="SourceGraphic" in2="effect1_dropShadow_36_119" result="shape"/>
</filter>
<filter id="filter8_d_36_119" x="21.7077" y="11.1006" width="11.877" height="16.9448" filterUnits="userSpaceOnUse" color-interpolation-filters="sRGB">
<feFlood flood-opacity="0" result="BackgroundImageFix"/>
<feColorMatrix in="SourceAlpha" type="matrix" values="0 0 0 0 0 0 0 0 0 0 0 0 0 0 0 0 0 0 127 0" result="hardAlpha"/>
<feOffset dy="4"/>
<feGaussianBlur stdDeviation="2"/>
<feComposite in2="hardAlpha" operator="out"/>
<feColorMatrix type="matrix" values="0 0 0 0 0 0 0 0 0 0 0 0 0 0 0 0 0 0 0.25 0"/>
<feBlend mode="normal" in2="BackgroundImageFix" result="effect1_dropShadow_36_119"/>
<feBlend mode="normal" in="SourceGraphic" in2="effect1_dropShadow_36_119" result="shape"/>
</filter>
<filter id="filter9_d_36_119" x="53.495" y="39.4785" width="17.4069" height="12.0083" filterUnits="userSpaceOnUse" color-interpolation-filters="sRGB">
<feFlood flood-opacity="0" result="BackgroundImageFix"/>
<feColorMatrix in="SourceAlpha" type="matrix" values="0 0 0 0 0 0 0 0 0 0 0 0 0 0 0 0 0 0 127 0" result="hardAlpha"/>
<feOffset dy="4"/>
<feGaussianBlur stdDeviation="2"/>
<feComposite in2="hardAlpha" operator="out"/>
<feColorMatrix type="matrix" values="0 0 0 0 0 0 0 0 0 0 0 0 0 0 0 0 0 0 0.25 0"/>
<feBlend mode="normal" in2="BackgroundImageFix" result="effect1_dropShadow_36_119"/>
<feBlend mode="normal" in="SourceGraphic" in2="effect1_dropShadow_36_119" result="shape"/>
</filter>
<filter id="filter10_d_36_119" x="12.6043" y="16.7954" width="17.3138" height="11.8506" filterUnits="userSpaceOnUse" color-interpolation-filters="sRGB">
<feFlood flood-opacity="0" result="BackgroundImageFix"/>
<feColorMatrix in="SourceAlpha" type="matrix" values="0 0 0 0 0 0 0 0 0 0 0 0 0 0 0 0 0 0 127 0" result="hardAlpha"/>
<feOffset dy="4"/>
<feGaussianBlur stdDeviation="2"/>
<feComposite in2="hardAlpha" operator="out"/>
<feColorMatrix type="matrix" values="0 0 0 0 0 0 0 0 0 0 0 0 0 0 0 0 0 0 0.25 0"/>
<feBlend mode="normal" in2="BackgroundImageFix" result="effect1_dropShadow_36_119"/>
<feBlend mode="normal" in="SourceGraphic" in2="effect1_dropShadow_36_119" result="shape"/>
</filter>
<filter id="filter11_d_36_119" x="19.8622" y="42.8311" width="10.6166" height="13.877" filterUnits="userSpaceOnUse" color-interpolation-filters="sRGB">
<feFlood flood-opacity="0" result="BackgroundImageFix"/>
<feColorMatrix in="SourceAlpha" type="matrix" values="0 0 0 0 0 0 0 0 0 0 0 0 0 0 0 0 0 0 127 0" result="hardAlpha"/>
<feOffset dy="4"/>
<feGaussianBlur stdDeviation="2"/>
<feComposite in2="hardAlpha" operator="out"/>
<feColorMatrix type="matrix" values="0 0 0 0 0 0 0 0 0 0 0 0 0 0 0 0 0 0 0.25 0"/>
<feBlend mode="normal" in2="BackgroundImageFix" result="effect1_dropShadow_36_119"/>
<feBlend mode="normal" in="SourceGraphic" in2="effect1_dropShadow_36_119" result="shape"/>
</filter>
<filter id="filter12_d_36_119" x="18.0312" y="42.8311" width="12.4473" height="17.2051" filterUnits="userSpaceOnUse" color-interpolation-filters="sRGB">
<feFlood flood-opacity="0" result="BackgroundImageFix"/>
<feColorMatrix in="SourceAlpha" type="matrix" values="0 0 0 0 0 0 0 0 0 0 0 0 0 0 0 0 0 0 127 0" result="hardAlpha"/>
<feOffset dy="4"/>
<feGaussianBlur stdDeviation="2"/>
<feComposite in2="hardAlpha" operator="out"/>
<feColorMatrix type="matrix" values="0 0 0 0 0 0 0 0 0 0 0 0 0 0 0 0 0 0 0.25 0"/>
<feBlend mode="normal" in2="BackgroundImageFix" result="effect1_dropShadow_36_119"/>
<feBlend mode="normal" in="SourceGraphic" in2="effect1_dropShadow_36_119" result="shape"/>
</filter>
<filter id="filter13_d_36_119" x="57.0854" y="45.0962" width="11.7133" height="11.564" filterUnits="userSpaceOnUse" color-interpolation-filters="sRGB">
<feFlood flood-opacity="0" result="BackgroundImageFix"/>
<feColorMatrix in="SourceAlpha" type="matrix" values="0 0 0 0 0 0 0 0 0 0 0 0 0 0 0 0 0 0 127 0" result="hardAlpha"/>
<feOffset dy="4"/>
<feGaussianBlur stdDeviation="2"/>
<feComposite in2="hardAlpha" operator="out"/>
<feColorMatrix type="matrix" values="0 0 0 0 0 0 0 0 0 0 0 0 0 0 0 0 0 0 0.25 0"/>
<feBlend mode="normal" in2="BackgroundImageFix" result="effect1_dropShadow_36_119"/>
<feBlend mode="normal" in="SourceGraphic" in2="effect1_dropShadow_36_119" result="shape"/>
</filter>
<filter id="filter14_d_36_119" x="14.8578" y="11.1108" width="11.713" height="11.5645" filterUnits="userSpaceOnUse" color-interpolation-filters="sRGB">
<feFlood flood-opacity="0" result="BackgroundImageFix"/>
<feColorMatrix in="SourceAlpha" type="matrix" values="0 0 0 0 0 0 0 0 0 0 0 0 0 0 0 0 0 0 127 0" result="hardAlpha"/>
<feOffset dy="4"/>
<feGaussianBlur stdDeviation="2"/>
<feComposite in2="hardAlpha" operator="out"/>
<feColorMatrix type="matrix" values="0 0 0 0 0 0 0 0 0 0 0 0 0 0 0 0 0 0 0.25 0"/>
<feBlend mode="normal" in2="BackgroundImageFix" result="effect1_dropShadow_36_119"/>
<feBlend mode="normal" in="SourceGraphic" in2="effect1_dropShadow_36_119" result="shape"/>
</filter>
<filter id="filter15_d_36_119" x="57.0854" y="11.5747" width="11.7133" height="11.564" filterUnits="userSpaceOnUse" color-interpolation-filters="sRGB">
<feFlood flood-opacity="0" result="BackgroundImageFix"/>
<feColorMatrix in="SourceAlpha" type="matrix" values="0 0 0 0 0 0 0 0 0 0 0 0 0 0 0 0 0 0 127 0" result="hardAlpha"/>
<feOffset dy="4"/>
<feGaussianBlur stdDeviation="2"/>
<feComposite in2="hardAlpha" operator="out"/>
<feColorMatrix type="matrix" values="0 0 0 0 0 0 0 0 0 0 0 0 0 0 0 0 0 0 0.25 0"/>
<feBlend mode="normal" in2="BackgroundImageFix" result="effect1_dropShadow_36_119"/>
<feBlend mode="normal" in="SourceGraphic" in2="effect1_dropShadow_36_119" result="shape"/>
</filter>
<filter id="filter16_d_36_119" x="13.5542" y="46.647" width="11.7133" height="11.564" filterUnits="userSpaceOnUse" color-interpolation-filters="sRGB">
<feFlood flood-opacity="0" result="BackgroundImageFix"/>
<feColorMatrix in="SourceAlpha" type="matrix" values="0 0 0 0 0 0 0 0 0 0 0 0 0 0 0 0 0 0 127 0" result="hardAlpha"/>
<feOffset dy="4"/>
<feGaussianBlur stdDeviation="2"/>
<feComposite in2="hardAlpha" operator="out"/>
<feColorMatrix type="matrix" values="0 0 0 0 0 0 0 0 0 0 0 0 0 0 0 0 0 0 0.25 0"/>
<feBlend mode="normal" in2="BackgroundImageFix" result="effect1_dropShadow_36_119"/>
<feBlend mode="normal" in="SourceGraphic" in2="effect1_dropShadow_36_119" result="shape"/>
</filter>
<filter id="filter17_d_36_119" x="81.6361" y="24.2842" width="164.303" height="26.3838" filterUnits="userSpaceOnUse" color-interpolation-filters="sRGB">
<feFlood flood-opacity="0" result="BackgroundImageFix"/>
<feColorMatrix in="SourceAlpha" type="matrix" values="0 0 0 0 0 0 0 0 0 0 0 0 0 0 0 0 0 0 127 0" result="hardAlpha"/>
<feOffset dy="4"/>
<feGaussianBlur stdDeviation="2"/>
<feComposite in2="hardAlpha" operator="out"/>
<feColorMatrix type="matrix" values="0 0 0 0 0 0 0 0 0 0 0 0 0 0 0 0 0 0 0.25 0"/>
<feBlend mode="normal" in2="BackgroundImageFix" result="effect1_dropShadow_36_119"/>
<feBlend mode="normal" in="SourceGraphic" in2="effect1_dropShadow_36_119" result="shape"/>
</filter>
</defs>
</svg>
