<svg width="48" height="45" viewBox="0 0 48 45" fill="none" xmlns="http://www.w3.org/2000/svg">
<path d="M6.6175 18.9029C5.60009 18.9029 4.75878 18.5712 4.09355 17.9077C3.42832 17.2441 3.0957 16.405 3.0957 15.3902C3.0957 14.3754 3.42832 13.5363 4.09355 12.8728C4.75878 12.2093 5.60009 11.8775 6.6175 11.8775C7.63491 11.8775 8.47623 12.2093 9.14146 12.8728C9.80669 13.5363 10.1393 14.3754 10.1393 15.3902C10.1393 16.405 9.80669 17.2441 9.14146 17.9077C8.47623 18.5712 7.63491 18.9029 6.6175 18.9029ZM10.1393 39.9792H28.9222V28.2702H24.8135C22.0352 28.2702 19.6779 27.3045 17.7417 25.3733C15.8055 23.4421 14.8366 21.0902 14.835 18.3175C14.835 16.2489 15.393 14.4043 16.5091 12.7838C17.6251 11.1632 19.0628 9.96346 20.8221 9.18442C21.2525 6.64746 22.4366 4.51095 24.3744 2.77489C26.3122 1.03883 28.6107 0.17002 31.2701 0.168459C33.9294 0.166898 36.2288 1.03571 38.1681 2.77489C40.1074 4.51407 41.2908 6.65058 41.7181 9.18442C43.479 9.96502 44.9174 11.1656 46.0335 12.7861C47.1495 14.4066 47.7067 16.2504 47.7051 18.3175C47.7051 21.0886 46.737 23.4406 44.8008 25.3733C42.8646 27.3061 40.5066 28.2717 37.7267 28.2702H33.618V39.9792H43.0094C43.6746 39.9792 44.2326 40.204 44.6834 40.6536C45.1342 41.1033 45.3588 41.659 45.3573 42.321C45.3557 42.9829 45.1303 43.5395 44.6811 43.9907C44.2319 44.4419 43.6746 44.6659 43.0094 44.6628H5.44357C4.77834 44.6628 4.22112 44.438 3.77189 43.9884C3.32267 43.5387 3.09727 42.9829 3.0957 42.321V32.9538C2.66526 32.5244 2.16595 32.1833 1.59777 31.9304C1.02958 31.6775 0.746274 31.238 0.74784 30.612V23.5865C0.74784 22.923 0.973235 22.3672 1.42403 21.9192C1.87482 21.4711 2.43204 21.2463 3.0957 21.2447H10.1393C10.8045 21.2447 11.3625 21.4695 11.8133 21.9192C12.2641 22.3688 12.4887 22.9246 12.4872 23.5865V30.612C12.4872 31.2364 12.2031 31.6759 11.6349 31.9304C11.0667 32.1849 10.5682 32.526 10.1393 32.9538V39.9792ZM24.8135 23.5865H37.7267C39.2137 23.5865 40.4659 23.0791 41.4833 22.0644C42.5007 21.0496 43.0094 19.8006 43.0094 18.3175C43.0094 17.2637 42.7253 16.3074 42.1571 15.4488C41.5889 14.5901 40.8165 13.9461 39.8398 13.5168L37.3745 12.4629L37.0224 9.88696C36.7876 8.44285 36.1325 7.24306 35.0572 6.2876C33.9819 5.33214 32.7195 4.85364 31.2701 4.85207C29.8207 4.85051 28.5591 5.32902 27.4853 6.2876C26.4116 7.24618 25.7557 8.44597 25.5178 9.88696L25.1656 12.4629L22.7004 13.5168C21.7221 13.9461 20.9497 14.5901 20.383 15.4488C19.8164 16.3074 19.5323 17.2637 19.5308 18.3175C19.5308 19.8006 20.0395 21.0496 21.0569 22.0644C22.0743 23.0791 23.3265 23.5865 24.8135 23.5865Z" fill="#12941F"/>
</svg>
