<svg width="45" height="42" viewBox="0 0 45 42" fill="none" xmlns="http://www.w3.org/2000/svg">
<path d="M4.09504 17.6989C3.11738 16.7872 2.33983 15.7011 1.80725 14.5031C1.27467 13.3052 0.997601 12.0192 0.992016 10.7192C0.986432 9.41928 1.25245 8.13116 1.77471 6.92915C2.29698 5.72714 3.06517 4.63504 4.03497 3.71583C5.00476 2.79663 6.15697 2.06851 7.42514 1.57349C8.6933 1.07847 10.0523 0.826331 11.4238 0.831625C12.7953 0.836918 14.1521 1.09954 15.416 1.60433C16.6798 2.10913 17.8258 2.84611 18.7876 3.77277C19.2267 4.2422 19.4602 4.85282 19.4403 5.4799C19.4205 6.10699 19.1488 6.70323 18.6808 7.14685C18.2127 7.59047 17.5837 7.84799 16.9221 7.86681C16.2605 7.88564 15.6162 7.66435 15.121 7.24814C14.6378 6.79014 14.0641 6.42682 13.4327 6.17895C12.8014 5.93108 12.1247 5.8035 11.4413 5.8035C10.758 5.8035 10.0813 5.93108 9.44992 6.17895C8.81857 6.42682 8.24491 6.79014 7.76169 7.24814C7.27847 7.70615 6.89516 8.24989 6.63365 8.84831C6.37213 9.44673 6.23753 10.0881 6.23753 10.7358C6.23753 11.3836 6.37213 12.0249 6.63365 12.6233C6.89516 13.2218 7.27847 13.7655 7.76169 14.2235C8.24964 14.686 8.52377 15.3133 8.52377 15.9674C8.52377 16.6214 8.24964 17.2487 7.76169 17.7112C7.27374 18.1737 6.61194 18.4335 5.92187 18.4335C5.2318 18.4335 4.57 18.1737 4.08205 17.7112L4.09504 17.6989ZM30.2724 7.24814C30.7556 6.79014 31.3293 6.42682 31.9607 6.17895C32.592 5.93108 33.2687 5.8035 33.9521 5.8035C34.6354 5.8035 35.3121 5.93108 35.9435 6.17895C36.5748 6.42682 37.1485 6.79014 37.6317 7.24814C38.1149 7.70615 38.4982 8.24989 38.7598 8.84831C39.0213 9.44673 39.1559 10.0881 39.1559 10.7358C39.1559 11.3836 39.0213 12.0249 38.7598 12.6233C38.4982 13.2218 38.1149 13.7655 37.6317 14.2235C37.1438 14.686 36.8696 15.3133 36.8696 15.9674C36.8696 16.6214 37.1438 17.2487 37.6317 17.7112C38.1197 18.1737 38.7815 18.4335 39.4715 18.4335C40.1616 18.4335 40.8234 18.1737 41.3114 17.7112C42.289 16.7995 43.0666 15.7134 43.5991 14.5154C44.1317 13.3175 44.4088 12.0315 44.4144 10.7315C44.42 9.43159 44.1539 8.14347 43.6317 6.94146C43.1094 5.73945 42.3412 4.64735 41.3714 3.72814C40.4016 2.80894 39.2494 2.08082 37.9813 1.5858C36.7131 1.09078 35.3541 0.838641 33.9826 0.843934C32.6111 0.849227 31.2543 1.11185 29.9904 1.61664C28.7265 2.12144 27.5806 2.85842 26.6188 3.78508C26.1308 4.24757 25.8567 4.87485 25.8567 5.52892C25.8567 6.18299 26.1308 6.81027 26.6188 7.27276C27.1067 7.73526 27.7685 7.99509 28.4586 7.99509C29.1486 7.99509 29.8105 7.73526 30.2984 7.27276L30.2724 7.24814ZM37.6187 25.0969C37.3766 25.3256 37.1844 25.5974 37.0534 25.8966C36.9223 26.1959 36.8548 26.5167 36.8548 26.8407C36.8548 27.1647 36.9223 27.4856 37.0534 27.7848C37.1844 28.0841 37.3766 28.3558 37.6187 28.5846C38.5946 29.5079 39.1436 30.7609 39.1448 32.0679C39.146 33.3749 38.5994 34.6288 37.6252 35.5538C36.651 36.4788 35.3291 36.9991 33.9502 37.0002C32.5713 37.0014 31.2483 36.4833 30.2724 35.5599C29.7845 35.0974 29.1227 34.8376 28.4326 34.8376C27.7425 34.8376 27.0807 35.0974 26.5928 35.5599C26.1048 36.0224 25.8307 36.6497 25.8307 37.3038C25.8307 37.9578 26.1048 38.5851 26.5928 39.0476C27.5547 39.9743 28.7006 40.7113 29.9644 41.2161C31.2283 41.7209 32.5851 41.9835 33.9566 41.9888C35.3281 41.9941 36.6871 41.7419 37.9553 41.2469C39.2234 40.7519 40.3757 40.0238 41.3454 39.1046C42.3152 38.1853 43.0834 37.0932 43.6057 35.8912C44.128 34.6892 44.394 33.4011 44.3884 32.1012C44.3828 30.8012 44.1057 29.5152 43.5732 28.3173C43.0406 27.1193 42.263 26.0332 41.2854 25.1215C40.8008 24.6638 40.1453 24.4058 39.4612 24.4035C38.7771 24.4012 38.1197 24.6548 37.6317 25.1092L37.6187 25.0969ZM15.121 35.5599C14.6378 36.0179 14.0641 36.3813 13.4327 36.6291C12.8014 36.877 12.1247 37.0046 11.4413 37.0046C10.758 37.0046 10.0813 36.877 9.44992 36.6291C8.81857 36.3813 8.24491 36.0179 7.76169 35.5599C7.27847 35.1019 6.89516 34.5582 6.63365 33.9598C6.37213 33.3614 6.23753 32.72 6.23753 32.0722C6.23753 31.4245 6.37213 30.7831 6.63365 30.1847C6.89516 29.5863 7.27847 29.0426 7.76169 28.5846C8.24964 28.1221 8.52377 27.4948 8.52377 26.8407C8.52377 26.1867 8.24964 25.5594 7.76169 25.0969C7.27374 24.6344 6.61194 24.3746 5.92187 24.3746C5.2318 24.3746 4.57 24.6344 4.08205 25.0969C3.10439 26.0086 2.32684 27.0947 1.79427 28.2926C1.26169 29.4906 0.984614 30.7766 0.979029 32.0765C0.973444 33.3765 1.23946 34.6646 1.76173 35.8666C2.284 37.0686 3.05218 38.1607 4.02198 39.0799C4.99177 39.9991 6.14398 40.7273 7.41215 41.2223C8.68031 41.7173 10.0393 41.9694 11.4108 41.9641C12.7823 41.9588 14.1391 41.6962 15.403 41.1914C16.6669 40.6866 17.8128 39.9497 18.7746 39.023C19.0162 38.794 19.2079 38.5221 19.3387 38.2229C19.4694 37.9237 19.5367 37.603 19.5367 37.2792C19.5367 36.9553 19.4694 36.6346 19.3387 36.3354C19.2079 36.0362 19.0162 35.7643 18.7746 35.5353C18.533 35.3063 18.2462 35.1247 17.9305 35.0007C17.6148 34.8768 17.2765 34.813 16.9348 34.813C16.5931 34.813 16.2548 34.8768 15.9391 35.0007C15.6234 35.1247 15.3366 35.3063 15.095 35.5353L15.121 35.5599ZM30.4889 17.506V25.302L35.7897 30.3243C36.2777 30.7868 36.5518 31.4141 36.5518 32.0681C36.5518 32.7222 36.2777 33.3495 35.7897 33.812C35.3018 34.2745 34.64 34.5343 33.9499 34.5343C33.2598 34.5343 32.598 34.2745 32.1101 33.812L26.8092 28.7897H18.5842L13.279 33.814C12.791 34.2765 12.1292 34.5364 11.4392 34.5364C10.7491 34.5364 10.0873 34.2765 9.59935 33.814C9.11139 33.3515 8.83727 32.7243 8.83727 32.0702C8.83727 31.7463 8.90457 31.4256 9.03533 31.1264C9.16608 30.8272 9.35774 30.5554 9.59935 30.3264L14.9045 25.302V17.506L9.60368 12.4776C9.11572 12.0151 8.8416 11.3878 8.8416 10.7338C8.8416 10.0797 9.11572 9.45243 9.60368 8.98993C10.0916 8.52744 10.7534 8.26761 11.4435 8.26761C12.1336 8.26761 12.7954 8.52744 13.2833 8.98993L18.5842 14.0184H26.8092L32.1079 8.99404C32.5959 8.53154 33.2577 8.27172 33.9477 8.27172C34.6378 8.27172 35.2996 8.53154 35.7876 8.99404C36.2755 9.45653 36.5496 10.0838 36.5496 10.7379C36.5496 11.3919 36.2755 12.0192 35.7876 12.4817L30.4889 17.506ZM20.0993 23.8659H25.2941V18.9421H20.0993V23.8659Z" fill="#12941F"/>
</svg>
