<svg width="36" height="41" viewBox="0 0 36 41" fill="none" xmlns="http://www.w3.org/2000/svg">
<path d="M24.576 4.17255H24.5886ZM24.576 4.17255L18.2861 16.1848L30.8659 21.9868L11.9963 36.2053L18.2861 24.193L5.7064 18.3871L24.576 4.17255ZM24.576 0.168459C23.2856 0.173091 22.0456 0.567363 21.1065 1.27159L2.24445 15.4761C1.67587 15.9047 1.24102 16.4331 0.974557 17.0192C0.708098 17.6052 0.61741 18.2327 0.709726 18.8516C0.890874 20.1048 1.80919 21.218 3.18039 21.8506L11.9409 25.8968L7.34679 34.6677C7.02967 35.2765 6.90598 35.9381 6.98664 36.5939C7.06731 37.2498 7.34986 37.8797 7.80929 38.428C8.26872 38.9763 8.89087 39.426 9.62071 39.7374C10.3506 40.0488 11.1656 40.2123 11.9937 40.2134C13.2467 40.2134 14.4921 39.841 15.4532 39.1163L34.3228 24.8957C34.8915 24.4676 35.3264 23.9396 35.5929 23.3539C35.8594 22.7681 35.95 22.1409 35.8575 21.5223C35.7672 20.9039 35.4968 20.3109 35.0679 19.7902C34.639 19.2696 34.0634 18.8358 33.3868 18.5232L24.6263 14.4831L29.1273 5.88831C29.4912 5.2777 29.655 4.60374 29.6034 3.92919C29.5518 3.25465 29.2865 2.60148 28.8321 2.03052C28.3778 1.45956 27.7493 0.989386 27.0051 0.663802C26.2609 0.338217 25.4253 0.167811 24.576 0.168459Z" fill="#12941F"/>
</svg>
