<svg width="51" height="47" viewBox="0 0 51 47" fill="none" xmlns="http://www.w3.org/2000/svg">
<path d="M48.2734 21.0213H37.91C37.3603 21.0213 36.8331 21.265 36.4444 21.6988C36.0557 22.1325 35.8373 22.7208 35.8373 23.3342V44.1505C35.8373 44.7639 36.0557 45.3522 36.4444 45.786C36.8331 46.2197 37.3603 46.4634 37.91 46.4634H48.2734C48.8231 46.4634 49.3503 46.2197 49.739 45.786C50.1277 45.3522 50.346 44.7639 50.346 44.1505V23.3342C50.346 22.7208 50.1277 22.1325 49.739 21.6988C49.3503 21.265 48.8231 21.0213 48.2734 21.0213ZM48.2734 41.8376H37.91V25.6472H48.2734V41.8376ZM42.0553 0.205078H4.74724C2.44658 0.205078 0.601898 2.26357 0.601898 4.83091V32.5859C0.601898 33.8127 1.03864 34.9893 1.81604 35.8569C2.59344 36.7244 3.64783 37.2117 4.74724 37.2117H19.256V41.8376H15.1106V46.4634H31.692V41.8376H27.5466V37.2117H31.692V32.5859H4.74724V4.83091H42.0553V16.3955H46.2007V4.83091C46.2007 3.60406 45.7639 2.42746 44.9865 1.55995C44.2091 0.692441 43.1548 0.205078 42.0553 0.205078Z" fill="#12941F"/>
</svg>
