<svg width="48" height="45" viewBox="0 0 48 45" fill="none" xmlns="http://www.w3.org/2000/svg">
<g clip-path="url(#clip0_33_57)">
<path d="M47.7555 19.6347H44.8207V11.3948L36.744 6.9315L38.2232 4.52881L47.0277 9.39538C47.2492 9.51788 47.433 9.69327 47.5607 9.90406C47.6884 10.1148 47.7556 10.3537 47.7555 10.5967V19.6347ZM30.1465 30.7582C29.8867 30.7584 29.6315 30.6931 29.407 30.5691L20.6025 25.7026C20.3809 25.5801 20.1971 25.4047 20.0694 25.1939C19.9417 24.9831 19.8746 24.7443 19.8746 24.5012V14.7681C19.8746 14.525 19.9417 14.2862 20.0694 14.0754C20.1971 13.8646 20.3809 13.6892 20.6025 13.5667L29.407 8.70016C29.6314 8.57604 29.8867 8.51064 30.1465 8.51064C30.4064 8.51064 30.6617 8.57604 30.8861 8.70016L39.6906 13.5667C39.9122 13.6892 40.096 13.8646 40.2237 14.0754C40.3514 14.2862 40.4185 14.525 40.4185 14.7681V24.5012C40.4185 24.7443 40.3514 24.9831 40.2237 25.1939C40.096 25.4047 39.9122 25.5801 39.6906 25.7026L30.8861 30.5691C30.6616 30.6931 30.4064 30.7584 30.1465 30.7582ZM22.8095 23.7031L30.1465 27.7577L37.4836 23.7031V15.5662L30.1465 11.5116L22.8095 15.5662V23.7031Z" fill="#12941F"/>
<path d="M19.1407 36.32C20.3562 36.32 21.3416 35.3862 21.3416 34.2344C21.3416 33.0825 20.3562 32.1487 19.1407 32.1487C17.9252 32.1487 16.9398 33.0825 16.9398 34.2344C16.9398 35.3862 17.9252 36.32 19.1407 36.32Z" fill="#12941F"/>
<path d="M28.6791 41.882H9.60272C7.98416 41.882 6.66789 40.6348 6.66789 39.1011V5.73036C6.66789 4.1967 7.98416 2.94946 9.60272 2.94946H28.6791V5.73036H9.60272V39.1011H28.6791V33.5393H31.614V39.1011C31.614 40.6348 30.2977 41.882 28.6791 41.882Z" fill="#12941F"/>
</g>
<defs>
<clipPath id="clip0_33_57">
<rect width="46.9573" height="44.4944" fill="white" transform="translate(0.798233 0.168457)"/>
</clipPath>
</defs>
</svg>
