<svg width="47" height="47" viewBox="0 0 47 47" fill="none" xmlns="http://www.w3.org/2000/svg">
<path d="M22.9046 1.71899C22.9046 1.71899 27.6353 2.1493 33.6531 8.17758C39.6728 14.2059 40.1025 18.9412 40.1025 18.9412M24.3376 8.8961C24.3376 8.8961 26.3442 9.46848 29.3541 12.4826C32.364 15.4968 32.9376 17.5062 32.9376 17.5062" stroke="#12941F" stroke-width="2.5" stroke-linecap="round"/>
<path d="M31.9745 32.2321L33.0571 31.1506L30.4683 28.8233L29.3857 29.907L31.9745 32.2321ZM36.6238 30.6955L41.1685 33.1761L42.9506 30.2449L38.4036 27.7666L36.6238 30.6955ZM42.0464 38.3108L38.6677 41.679L41.2541 44.0087L44.6328 40.6404L42.0464 38.3108ZM36.6333 42.7605C33.2189 43.0782 24.3081 42.8078 14.6382 33.1694L12.0518 35.4945C22.5902 46.0003 32.6431 46.5321 36.9831 46.1243L36.6333 42.7605ZM14.6382 33.1694C5.41571 23.9748 3.8691 16.2176 3.67637 12.8155L0.112044 12.998C0.349984 17.1661 2.21543 25.6893 12.0518 35.4945L14.6382 33.1694ZM17.9123 18.2138L18.5928 17.5333L16.0064 15.206L15.3235 15.8864L17.9123 18.2138ZM19.1305 9.06196L16.1301 5.04706L13.2154 6.99819L16.2134 11.0153L19.1305 9.06196ZM5.97249 4.17739L2.2416 7.9039L4.83038 10.2313L8.56602 6.50702L5.97249 4.17739ZM16.6179 17.0489C16.1896 16.6582 15.7574 16.2714 15.3211 15.8886L15.3164 15.8931L15.3092 15.8999C15.2674 15.9417 15.2277 15.9853 15.1903 16.0306C14.957 16.3229 14.7725 16.6474 14.643 16.9926C14.4098 17.6122 14.2861 18.4323 14.4431 19.4552C14.7524 21.4649 16.1444 24.1663 19.7777 27.7914L22.3665 25.4617C18.9687 22.0754 18.1312 19.9914 17.9741 18.964C17.898 18.4684 17.9741 18.2093 18.0051 18.1259L18.0241 18.0831C18.0047 18.1128 17.9824 18.1407 17.9575 18.1664C17.9435 18.1817 17.9292 18.1967 17.9147 18.2115C17.9147 18.2115 17.9099 18.2115 16.6179 17.0489ZM19.7777 27.7914C23.4015 31.4052 26.1378 32.8224 28.2246 33.1446C29.2977 33.309 30.1661 33.1761 30.8229 32.9305C31.1867 32.7953 31.525 32.6051 31.8246 32.3673C31.8539 32.3425 31.8824 32.3169 31.9102 32.2907L31.9435 32.2591C31.9492 32.2547 31.9547 32.2502 31.9602 32.2456L31.9673 32.2389L31.9697 32.2344C31.9697 32.2344 31.9745 32.2321 30.6801 31.0673C29.3857 29.9047 29.3881 29.9025 29.3881 29.9002L29.3928 29.898L29.3976 29.8912C29.4016 29.8875 29.4056 29.8837 29.4095 29.8799L29.4333 29.8574C29.4612 29.8319 29.4906 29.8078 29.5213 29.7853C29.5451 29.7718 29.5427 29.7763 29.5118 29.7876C29.4642 29.8056 29.2501 29.8777 28.798 29.8078C27.8415 29.6591 25.7762 28.8616 22.3665 25.4617L19.7777 27.7914ZM16.1301 5.04706C13.7174 1.81622 8.892 1.26873 5.97487 4.17965L8.55889 6.50702C9.80331 5.26786 11.9971 5.36474 13.2154 6.99819L16.1301 5.04706ZM3.67637 12.8155C3.62403 11.9143 4.04042 11.0153 4.83038 10.2313L2.2416 7.9039C0.966246 9.17461 -0.00454584 10.9387 0.112044 12.998L3.67637 12.8155ZM38.6653 41.6813C38.0015 42.3437 37.3091 42.6974 36.6333 42.7605L36.9831 46.1243C38.7605 45.9598 40.2 45.0608 41.2541 44.0087L38.6653 41.6813ZM18.5928 17.5356C20.896 15.2398 21.0578 11.6484 19.1305 9.06421L16.2158 11.0153C17.2199 12.3604 17.0652 14.1515 16.0064 15.206L18.5928 17.5356ZM41.1685 33.1761C43.1219 34.2418 43.505 36.8598 42.0464 38.313L44.6328 40.6404C47.738 37.5447 46.8338 32.3628 42.9506 30.2449L41.1685 33.1761ZM33.0571 31.1529C33.9732 30.2382 35.4032 30.0331 36.6238 30.6978L38.4036 27.7689C35.7886 26.3449 32.5503 26.755 30.4683 28.8278L33.0571 31.1529Z" fill="#12941F"/>
</svg>
